<?xml version="1.0" encoding="UTF-8"?>
<svg id="Layer_1" data-name="Layer 1" xmlns="http://www.w3.org/2000/svg" viewBox="0 0 1006 955.99">
  <defs>
    <style>
      .cls-1, .cls-2, .cls-3, .cls-4, .cls-5, .cls-6 {
        fill: #fff;
      }

      .cls-2, .cls-7 {
        letter-spacing: -.03em;
      }

      .cls-3 {
        letter-spacing: 0em;
      }

      .cls-3, .cls-6, .cls-8 {
        font-family: 'Montserrat',Bahnschrift-Bold, Bahnschrift;
        font-size: 40px;
        font-variation-settings: 'wght' 700, 'wdth' 100;
        font-weight: 700;
      }

      .cls-9 {
        fill: none;
        stroke-width: 40px;
      }

      .cls-9, .cls-10 {
        stroke: rgba(0,0,0,0);
        stroke-miterlimit: 10;
      }

      .cls-4 {
        letter-spacing: 0em;
      }

      .cls-10,{
        fill: #1e1e1e;
      } 
      .cls-11 {
        fill: #1e1e1e;
      }
      .cls-11e{
        fill: rgba(0,0,0,0);
      }

      .cls-12, .cls-5 {
        letter-spacing: 0em;
      }

      .cls-13 {
        fill: #f40009;
      }
    </style>
  </defs>
  <g>
    <g>
      <path class="cls-9" d="m883.11,219.3v-7.82h102.89v-68.59h-205.78c0-18.95,15.35-34.3,34.3-34.3V40c-56.44,0-102.89,46.45-102.89,102.89H196.7v68.59h.48v68.59c0,1.93-.16,3.84-.48,5.69.16.05.33.11.48.16v28.44h-34.3c-17,0-31.11-12.37-33.82-28.6-.32-1.85-.48-3.76-.48-5.69v-137.19H60v137.19c0,12.03,2.07,23.57,5.86,34.3,2.11,5.99,4.77,11.73,7.92,17.15,12.17,21.04,31.58,37.37,54.82,45.59.15.05.32.11.48.16,10.59,3.69,21.96,5.69,33.82,5.69s23.23-2,33.82-5.69c.32,1.85.48,3.76.48,5.69,0,18.95-15.35,34.3-34.3,34.3H60v68.59h102.89c12.03,0,23.57-2.07,34.3-5.86,29.23-10.33,52.4-33.5,62.73-62.73,3.79-10.73,5.86-22.27,5.86-34.3v-171.48h85.74v36.46c-29.32,7.53-51.06,33.97-51.44,65.55-.01.29-.01.59-.01.88s0,.59.01.89v101.12c-.01.29-.01.59-.01.88s0,.59.01.89c.47,37.47,31,67.7,68.58,67.7h34.31c37.89-.01,68.58-30.72,68.58-68.59h.01v-102.89c0-31.96-21.85-58.83-51.44-66.43v-36.46h187.26v195.34c-2.61,6.15-8.7,10.44-15.79,10.44-9.31,0-16.9-7.44-17.13-16.71v-154.77h-68.59v170.6c-.01.29-.01.59-.01.88s0,.59.01.89c.47,37.47,31,67.7,68.58,67.7h.01c11.94,0,23.14-3.05,32.92-8.42v8.42h69.96V211.48h34.3v274.37h68.59V211.48h34.3v274.37h68.59v-154.33c0-9.47,7.67-17.15,17.15-17.15s17.15,7.68,17.15,17.15v154.33h68.59v-171.48c0-37.88-30.7-68.59-68.59-68.59-12.5,0-24.21,3.35-34.3,9.19v-35.67Zm-480.15,129.37v51.44c0,9.47-7.68,17.15-17.15,17.15s-17.15-7.68-17.15-17.15v-68.59c0-9.47,7.67-17.15,17.15-17.15s17.15,7.68,17.15,17.15v17.15Z"/>
      <path class="cls-9" d="m881.11,218.3v-7.82h102.89v-68.59h-205.78c0-18.95,15.35-34.3,34.3-34.3V39c-56.44,0-102.89,46.45-102.89,102.89H194.7v68.59h.48v68.59c0,1.93-.16,3.84-.48,5.69.16.05.33.11.48.16v28.44h-34.3c-17,0-31.11-12.37-33.82-28.6-.32-1.85-.48-3.76-.48-5.69v-137.19H58v137.19c0,12.03,2.07,23.57,5.86,34.3,2.11,5.99,4.77,11.73,7.92,17.15,12.17,21.04,31.58,37.37,54.82,45.59.15.05.32.11.48.16,10.59,3.69,21.96,5.69,33.82,5.69s23.23-2,33.82-5.69c.32,1.85.48,3.76.48,5.69,0,18.95-15.35,34.3-34.3,34.3H58v68.59h102.89c12.03,0,23.57-2.07,34.3-5.86,29.23-10.33,52.4-33.5,62.73-62.73,3.79-10.73,5.86-22.27,5.86-34.3v-171.48h85.74v36.46c-29.32,7.53-51.06,33.97-51.44,65.55-.01.29-.01.59-.01.88s0,.59.01.89v101.12c-.01.29-.01.59-.01.88s0,.59.01.89c.47,37.47,31,67.7,68.58,67.7h34.31c37.89-.01,68.58-30.72,68.58-68.59h.01v-102.89c0-31.96-21.85-58.83-51.44-66.43v-36.46h187.26v195.34c-2.61,6.15-8.7,10.44-15.79,10.44-9.31,0-16.9-7.44-17.13-16.71v-154.77h-68.59v170.6c-.01.29-.01.59-.01.88s0,.59.01.89c.47,37.47,31,67.7,68.58,67.7h.01c11.94,0,23.14-3.05,32.92-8.42v8.42h69.96V210.48h34.3v274.37h68.59V210.48h34.3v274.37h68.59v-154.33c0-9.47,7.67-17.15,17.15-17.15s17.15,7.68,17.15,17.15v154.33h68.59v-171.48c0-37.88-30.7-68.59-68.59-68.59-12.5,0-24.21,3.35-34.3,9.19v-35.67Zm-480.15,129.37v51.44c0,9.47-7.68,17.15-17.15,17.15s-17.15-7.68-17.15-17.15v-68.59c0-9.47,7.67-17.15,17.15-17.15s17.15,7.68,17.15,17.15v17.15Z"/>
      <path class="cls-9" d="m879.11,217.3v-7.82h102.89v-68.59h-205.78c0-18.95,15.35-34.3,34.3-34.3V38c-56.44,0-102.89,46.45-102.89,102.89H192.7v68.59h.48v68.59c0,1.93-.16,3.84-.48,5.69.16.05.33.11.48.16v28.44h-34.3c-17,0-31.11-12.37-33.82-28.6-.32-1.85-.48-3.76-.48-5.69v-137.19H56v137.19c0,12.03,2.07,23.57,5.86,34.3,2.11,5.99,4.77,11.73,7.92,17.15,12.17,21.04,31.58,37.37,54.82,45.59.15.05.32.11.48.16,10.59,3.69,21.96,5.69,33.82,5.69s23.23-2,33.82-5.69c.32,1.85.48,3.76.48,5.69,0,18.95-15.35,34.3-34.3,34.3H56v68.59h102.89c12.03,0,23.57-2.07,34.3-5.86,29.23-10.33,52.4-33.5,62.73-62.73,3.79-10.73,5.86-22.27,5.86-34.3v-171.48h85.74v36.46c-29.32,7.53-51.06,33.97-51.44,65.55-.01.29-.01.59-.01.88s0,.59.01.89v101.12c-.01.29-.01.59-.01.88s0,.59.01.89c.47,37.47,31,67.7,68.58,67.7h34.31c37.89-.01,68.58-30.72,68.58-68.59h.01v-102.89c0-31.96-21.85-58.83-51.44-66.43v-36.46h187.26v195.34c-2.61,6.15-8.7,10.44-15.79,10.44-9.31,0-16.9-7.44-17.13-16.71v-154.77h-68.59v170.6c-.01.29-.01.59-.01.88s0,.59.01.89c.47,37.47,31,67.7,68.58,67.7h.01c11.94,0,23.14-3.05,32.92-8.42v8.42h69.96V209.48h34.3v274.37h68.59V209.48h34.3v274.37h68.59v-154.33c0-9.47,7.67-17.15,17.15-17.15s17.15,7.68,17.15,17.15v154.33h68.59v-171.48c0-37.88-30.7-68.59-68.59-68.59-12.5,0-24.21,3.35-34.3,9.19v-35.67Zm-480.15,129.37v51.44c0,9.47-7.68,17.15-17.15,17.15s-17.15-7.68-17.15-17.15v-68.59c0-9.47,7.67-17.15,17.15-17.15s17.15,7.68,17.15,17.15v17.15Z"/>
      <path class="cls-9" d="m877.11,216.3v-7.82h102.89v-68.59h-205.78c0-18.95,15.35-34.3,34.3-34.3V37c-56.44,0-102.89,46.45-102.89,102.89H190.7v68.59h.48v68.59c0,1.93-.16,3.84-.48,5.69.16.05.33.11.48.16v28.44h-34.3c-17,0-31.11-12.37-33.82-28.6-.32-1.85-.48-3.76-.48-5.69v-137.19H54v137.19c0,12.03,2.07,23.57,5.86,34.3,2.11,5.99,4.77,11.73,7.92,17.15,12.17,21.04,31.58,37.37,54.82,45.59.15.05.32.11.48.16,10.59,3.69,21.96,5.69,33.82,5.69s23.23-2,33.82-5.69c.32,1.85.48,3.76.48,5.69,0,18.95-15.35,34.3-34.3,34.3H54v68.59h102.89c12.03,0,23.57-2.07,34.3-5.86,29.23-10.33,52.4-33.5,62.73-62.73,3.79-10.73,5.86-22.27,5.86-34.3v-171.48h85.74v36.46c-29.32,7.53-51.06,33.97-51.44,65.55-.01.29-.01.59-.01.88s0,.59.01.89v101.12c-.01.29-.01.59-.01.88s0,.59.01.89c.47,37.47,31,67.7,68.58,67.7h34.31c37.89-.01,68.58-30.72,68.58-68.59h.01v-102.89c0-31.96-21.85-58.83-51.44-66.43v-36.46h187.26v195.34c-2.61,6.15-8.7,10.44-15.79,10.44-9.31,0-16.9-7.44-17.13-16.71v-154.77h-68.59v170.6c-.01.29-.01.59-.01.88s0,.59.01.89c.47,37.47,31,67.7,68.58,67.7h.01c11.94,0,23.14-3.05,32.92-8.42v8.42h69.96V208.48h34.3v274.37h68.59V208.48h34.3v274.37h68.59v-154.33c0-9.47,7.67-17.15,17.15-17.15s17.15,7.68,17.15,17.15v154.33h68.59v-171.48c0-37.88-30.7-68.59-68.59-68.59-12.5,0-24.21,3.35-34.3,9.19v-35.67Zm-480.15,129.37v51.44c0,9.47-7.68,17.15-17.15,17.15s-17.15-7.68-17.15-17.15v-68.59c0-9.47,7.67-17.15,17.15-17.15s17.15,7.68,17.15,17.15v17.15Z"/>
      <path class="cls-9" d="m875.11,215.3v-7.82h102.89v-68.59h-205.78c0-18.95,15.35-34.3,34.3-34.3V36c-56.44,0-102.89,46.45-102.89,102.89H188.7v68.59h.48v68.59c0,1.93-.16,3.84-.48,5.69.16.05.33.11.48.16v28.44h-34.3c-17,0-31.11-12.37-33.82-28.6-.32-1.85-.48-3.76-.48-5.69v-137.19H52v137.19c0,12.03,2.07,23.57,5.86,34.3,2.11,5.99,4.77,11.73,7.92,17.15,12.17,21.04,31.58,37.37,54.82,45.59.15.05.32.11.48.16,10.59,3.69,21.96,5.69,33.82,5.69s23.23-2,33.82-5.69c.32,1.85.48,3.76.48,5.69,0,18.95-15.35,34.3-34.3,34.3H52v68.59h102.89c12.03,0,23.57-2.07,34.3-5.86,29.23-10.33,52.4-33.5,62.73-62.73,3.79-10.73,5.86-22.27,5.86-34.3v-171.48h85.74v36.46c-29.32,7.53-51.06,33.97-51.44,65.55-.01.29-.01.59-.01.88s0,.59.01.89v101.12c-.01.29-.01.59-.01.88s0,.59.01.89c.47,37.47,31,67.7,68.58,67.7h34.31c37.89-.01,68.58-30.72,68.58-68.59h.01v-102.89c0-31.96-21.85-58.83-51.44-66.43v-36.46h187.26v195.34c-2.61,6.15-8.7,10.44-15.79,10.44-9.31,0-16.9-7.44-17.13-16.71v-154.77h-68.59v170.6c-.01.29-.01.59-.01.88s0,.59.01.89c.47,37.47,31,67.7,68.58,67.7h.01c11.94,0,23.14-3.05,32.92-8.42v8.42h69.96V207.48h34.3v274.37h68.59V207.48h34.3v274.37h68.59v-154.33c0-9.47,7.67-17.15,17.15-17.15s17.15,7.68,17.15,17.15v154.33h68.59v-171.48c0-37.88-30.7-68.59-68.59-68.59-12.5,0-24.21,3.35-34.3,9.19v-35.67Zm-480.15,129.37v51.44c0,9.47-7.68,17.15-17.15,17.15s-17.15-7.68-17.15-17.15v-68.59c0-9.47,7.67-17.15,17.15-17.15s17.15,7.68,17.15,17.15v17.15Z"/>
      <path class="cls-9" d="m873.11,214.3v-7.82h102.89v-68.59h-205.78c0-18.95,15.35-34.3,34.3-34.3V35c-56.44,0-102.89,46.45-102.89,102.89H186.7v68.59h.48v68.59c0,1.93-.16,3.84-.48,5.69.16.05.33.11.48.16v28.44h-34.3c-17,0-31.11-12.37-33.82-28.6-.32-1.85-.48-3.76-.48-5.69v-137.19H50v137.19c0,12.03,2.07,23.57,5.86,34.3,2.11,5.99,4.77,11.73,7.92,17.15,12.17,21.04,31.58,37.37,54.82,45.59.15.05.32.11.48.16,10.59,3.69,21.96,5.69,33.82,5.69s23.23-2,33.82-5.69c.32,1.85.48,3.76.48,5.69,0,18.95-15.35,34.3-34.3,34.3H50v68.59h102.89c12.03,0,23.57-2.07,34.3-5.86,29.23-10.33,52.4-33.5,62.73-62.73,3.79-10.73,5.86-22.27,5.86-34.3v-171.48h85.74v36.46c-29.32,7.53-51.06,33.97-51.44,65.55-.01.29-.01.59-.01.88s0,.59.01.89v101.12c-.01.29-.01.59-.01.88s0,.59.01.89c.47,37.47,31,67.7,68.58,67.7h34.31c37.89-.01,68.58-30.72,68.58-68.59h.01v-102.89c0-31.96-21.85-58.83-51.44-66.43v-36.46h187.26v195.34c-2.61,6.15-8.7,10.44-15.79,10.44-9.31,0-16.9-7.44-17.13-16.71v-154.77h-68.59v170.6c-.01.29-.01.59-.01.88s0,.59.01.89c.47,37.47,31,67.7,68.58,67.7h.01c11.94,0,23.14-3.05,32.92-8.42v8.42h69.96V206.48h34.3v274.37h68.59V206.48h34.3v274.37h68.59v-154.33c0-9.47,7.67-17.15,17.15-17.15s17.15,7.68,17.15,17.15v154.33h68.59v-171.48c0-37.88-30.7-68.59-68.59-68.59-12.5,0-24.21,3.35-34.3,9.19v-35.67Zm-480.15,129.37v51.44c0,9.47-7.68,17.15-17.15,17.15s-17.15-7.68-17.15-17.15v-68.59c0-9.47,7.67-17.15,17.15-17.15s17.15,7.68,17.15,17.15v17.15Z"/>
      <path class="cls-9" d="m871.11,213.3v-7.82h102.89v-68.59h-205.78c0-18.95,15.35-34.3,34.3-34.3V34c-56.44,0-102.89,46.45-102.89,102.89H184.7v68.59h.48v68.59c0,1.93-.16,3.84-.48,5.69.16.05.33.11.48.16v28.44h-34.3c-17,0-31.11-12.37-33.82-28.6-.32-1.85-.48-3.76-.48-5.69v-137.19H48v137.19c0,12.03,2.07,23.57,5.86,34.3,2.11,5.99,4.77,11.73,7.92,17.15,12.17,21.04,31.58,37.37,54.82,45.59.15.05.32.11.48.16,10.59,3.69,21.96,5.69,33.82,5.69s23.23-2,33.82-5.69c.32,1.85.48,3.76.48,5.69,0,18.95-15.35,34.3-34.3,34.3H48v68.59h102.89c12.03,0,23.57-2.07,34.3-5.86,29.23-10.33,52.4-33.5,62.73-62.73,3.79-10.73,5.86-22.27,5.86-34.3v-171.48h85.74v36.46c-29.32,7.53-51.06,33.97-51.44,65.55-.01.29-.01.59-.01.88s0,.59.01.89v101.12c-.01.29-.01.59-.01.88s0,.59.01.89c.47,37.47,31,67.7,68.58,67.7h34.31c37.89-.01,68.58-30.72,68.58-68.59h.01v-102.89c0-31.96-21.85-58.83-51.44-66.43v-36.46h187.26v195.34c-2.61,6.15-8.7,10.44-15.79,10.44-9.31,0-16.9-7.44-17.13-16.71v-154.77h-68.59v170.6c-.01.29-.01.59-.01.88s0,.59.01.89c.47,37.47,31,67.7,68.58,67.7h.01c11.94,0,23.14-3.05,32.92-8.42v8.42h69.96V205.48h34.3v274.37h68.59V205.48h34.3v274.37h68.59v-154.33c0-9.47,7.67-17.15,17.15-17.15s17.15,7.68,17.15,17.15v154.33h68.59v-171.48c0-37.88-30.7-68.59-68.59-68.59-12.5,0-24.21,3.35-34.3,9.19v-35.67Zm-480.15,129.37v51.44c0,9.47-7.68,17.15-17.15,17.15s-17.15-7.68-17.15-17.15v-68.59c0-9.47,7.67-17.15,17.15-17.15s17.15,7.68,17.15,17.15v17.15Z"/>
      <path class="cls-9" d="m869.11,212.3v-7.82h102.89v-68.59h-205.78c0-18.95,15.35-34.3,34.3-34.3V33c-56.44,0-102.89,46.45-102.89,102.89H182.7v68.59h.48v68.59c0,1.93-.16,3.84-.48,5.69.16.05.33.11.48.16v28.44h-34.3c-17,0-31.11-12.37-33.82-28.6-.32-1.85-.48-3.76-.48-5.69v-137.19H46v137.19c0,12.03,2.07,23.57,5.86,34.3,2.11,5.99,4.77,11.73,7.92,17.15,12.17,21.04,31.58,37.37,54.82,45.59.15.05.32.11.48.16,10.59,3.69,21.96,5.69,33.82,5.69s23.23-2,33.82-5.69c.32,1.85.48,3.76.48,5.69,0,18.95-15.35,34.3-34.3,34.3H46v68.59h102.89c12.03,0,23.57-2.07,34.3-5.86,29.23-10.33,52.4-33.5,62.73-62.73,3.79-10.73,5.86-22.27,5.86-34.3v-171.48h85.74v36.46c-29.32,7.53-51.06,33.97-51.44,65.55-.01.29-.01.59-.01.88s0,.59.01.89v101.12c-.01.29-.01.59-.01.88s0,.59.01.89c.47,37.47,31,67.7,68.58,67.7h34.31c37.89-.01,68.58-30.72,68.58-68.59h.01v-102.89c0-31.96-21.85-58.83-51.44-66.43v-36.46h187.26v195.34c-2.61,6.15-8.7,10.44-15.79,10.44-9.31,0-16.9-7.44-17.13-16.71v-154.77h-68.59v170.6c-.01.29-.01.59-.01.88s0,.59.01.89c.47,37.47,31,67.7,68.58,67.7h.01c11.94,0,23.14-3.05,32.92-8.42v8.42h69.96V204.48h34.3v274.37h68.59V204.48h34.3v274.37h68.59v-154.33c0-9.47,7.67-17.15,17.15-17.15s17.15,7.68,17.15,17.15v154.33h68.59v-171.48c0-37.88-30.7-68.59-68.59-68.59-12.5,0-24.21,3.35-34.3,9.19v-35.67Zm-480.15,129.37v51.44c0,9.47-7.68,17.15-17.15,17.15s-17.15-7.68-17.15-17.15v-68.59c0-9.47,7.67-17.15,17.15-17.15s17.15,7.68,17.15,17.15v17.15Z"/>
      <path class="cls-9" d="m867.11,211.3v-7.82h102.89v-68.59h-205.78c0-18.95,15.35-34.3,34.3-34.3V32c-56.44,0-102.89,46.45-102.89,102.89H180.7v68.59h.48v68.59c0,1.93-.16,3.84-.48,5.69.16.05.33.11.48.16v28.44h-34.3c-17,0-31.11-12.37-33.82-28.6-.32-1.85-.48-3.76-.48-5.69v-137.19H44v137.19c0,12.03,2.07,23.57,5.86,34.3,2.11,5.99,4.77,11.73,7.92,17.15,12.17,21.04,31.58,37.37,54.82,45.59.15.05.32.11.48.16,10.59,3.69,21.96,5.69,33.82,5.69s23.23-2,33.82-5.69c.32,1.85.48,3.76.48,5.69,0,18.95-15.35,34.3-34.3,34.3H44v68.59h102.89c12.03,0,23.57-2.07,34.3-5.86,29.23-10.33,52.4-33.5,62.73-62.73,3.79-10.73,5.86-22.27,5.86-34.3v-171.48h85.74v36.46c-29.32,7.53-51.06,33.97-51.44,65.55-.01.29-.01.59-.01.88s0,.59.01.89v101.12c-.01.29-.01.59-.01.88s0,.59.01.89c.47,37.47,31,67.7,68.58,67.7h34.31c37.89-.01,68.58-30.72,68.58-68.59h.01v-102.89c0-31.96-21.85-58.83-51.44-66.43v-36.46h187.26v195.34c-2.61,6.15-8.7,10.44-15.79,10.44-9.31,0-16.9-7.44-17.13-16.71v-154.77h-68.59v170.6c-.01.29-.01.59-.01.88s0,.59.01.89c.47,37.47,31,67.7,68.58,67.7h.01c11.94,0,23.14-3.05,32.92-8.42v8.42h69.96V203.48h34.3v274.37h68.59V203.48h34.3v274.37h68.59v-154.33c0-9.47,7.67-17.15,17.15-17.15s17.15,7.68,17.15,17.15v154.33h68.59v-171.48c0-37.88-30.7-68.59-68.59-68.59-12.5,0-24.21,3.35-34.3,9.19v-35.67Zm-480.15,129.37v51.44c0,9.47-7.68,17.15-17.15,17.15s-17.15-7.68-17.15-17.15v-68.59c0-9.47,7.67-17.15,17.15-17.15s17.15,7.68,17.15,17.15v17.15Z"/>
      <path class="cls-9" d="m865.11,210.3v-7.82h102.89v-68.59h-205.78c0-18.95,15.35-34.3,34.3-34.3V31c-56.44,0-102.89,46.45-102.89,102.89H178.7v68.59h.48v68.59c0,1.93-.16,3.84-.48,5.69.16.05.33.11.48.16v28.44h-34.3c-17,0-31.11-12.37-33.82-28.6-.32-1.85-.48-3.76-.48-5.69v-137.19H42v137.19c0,12.03,2.07,23.57,5.86,34.3,2.11,5.99,4.77,11.73,7.92,17.15,12.17,21.04,31.58,37.37,54.82,45.59.15.05.32.11.48.16,10.59,3.69,21.96,5.69,33.82,5.69s23.23-2,33.82-5.69c.32,1.85.48,3.76.48,5.69,0,18.95-15.35,34.3-34.3,34.3H42v68.59h102.89c12.03,0,23.57-2.07,34.3-5.86,29.23-10.33,52.4-33.5,62.73-62.73,3.79-10.73,5.86-22.27,5.86-34.3v-171.48h85.74v36.46c-29.32,7.53-51.06,33.97-51.44,65.55-.01.29-.01.59-.01.88s0,.59.01.89v101.12c-.01.29-.01.59-.01.88s0,.59.01.89c.47,37.47,31,67.7,68.58,67.7h34.31c37.89-.01,68.58-30.72,68.58-68.59h.01v-102.89c0-31.96-21.85-58.83-51.44-66.43v-36.46h187.26v195.34c-2.61,6.15-8.7,10.44-15.79,10.44-9.31,0-16.9-7.44-17.13-16.71v-154.77h-68.59v170.6c-.01.29-.01.59-.01.88s0,.59.01.89c.47,37.47,31,67.7,68.58,67.7h.01c11.94,0,23.14-3.05,32.92-8.42v8.42h69.96V202.48h34.3v274.37h68.59V202.48h34.3v274.37h68.59v-154.33c0-9.47,7.67-17.15,17.15-17.15s17.15,7.68,17.15,17.15v154.33h68.59v-171.48c0-37.88-30.7-68.59-68.59-68.59-12.5,0-24.21,3.35-34.3,9.19v-35.67Zm-480.15,129.37v51.44c0,9.47-7.68,17.15-17.15,17.15s-17.15-7.68-17.15-17.15v-68.59c0-9.47,7.67-17.15,17.15-17.15s17.15,7.68,17.15,17.15v17.15Z"/>
      <path class="cls-9" d="m863.11,209.3v-7.82h102.89v-68.59h-205.78c0-18.95,15.35-34.3,34.3-34.3V30c-56.44,0-102.89,46.45-102.89,102.89H176.7v68.59h.48v68.59c0,1.93-.16,3.84-.48,5.69.16.05.33.11.48.16v28.44h-34.3c-17,0-31.11-12.37-33.82-28.6-.32-1.85-.48-3.76-.48-5.69v-137.19H40v137.19c0,12.03,2.07,23.57,5.86,34.3,2.11,5.99,4.77,11.73,7.92,17.15,12.17,21.04,31.58,37.37,54.82,45.59.15.05.32.11.48.16,10.59,3.69,21.96,5.69,33.82,5.69s23.23-2,33.82-5.69c.32,1.85.48,3.76.48,5.69,0,18.95-15.35,34.3-34.3,34.3H40v68.59h102.89c12.03,0,23.57-2.07,34.3-5.86,29.23-10.33,52.4-33.5,62.73-62.73,3.79-10.73,5.86-22.27,5.86-34.3v-171.48h85.74v36.46c-29.32,7.53-51.06,33.97-51.44,65.55-.01.29-.01.59-.01.88s0,.59.01.89v101.12c-.01.29-.01.59-.01.88s0,.59.01.89c.47,37.47,31,67.7,68.58,67.7h34.31c37.89-.01,68.58-30.72,68.58-68.59h.01v-102.89c0-31.96-21.85-58.83-51.44-66.43v-36.46h187.26v195.34c-2.61,6.15-8.7,10.44-15.79,10.44-9.31,0-16.9-7.44-17.13-16.71v-154.77h-68.59v170.6c-.01.29-.01.59-.01.88s0,.59.01.89c.47,37.47,31,67.7,68.58,67.7h.01c11.94,0,23.14-3.05,32.92-8.42v8.42h69.96V201.48h34.3v274.37h68.59V201.48h34.3v274.37h68.59v-154.33c0-9.47,7.67-17.15,17.15-17.15s17.15,7.68,17.15,17.15v154.33h68.59v-171.48c0-37.88-30.7-68.59-68.59-68.59-12.5,0-24.21,3.35-34.3,9.19v-35.67Zm-480.15,129.37v51.44c0,9.47-7.68,17.15-17.15,17.15s-17.15-7.68-17.15-17.15v-68.59c0-9.47,7.67-17.15,17.15-17.15s17.15,7.68,17.15,17.15v17.15Z"/>
      <path class="cls-9" d="m861.11,208.3v-7.82h102.89v-68.59h-205.78c0-18.95,15.35-34.3,34.3-34.3V29c-56.44,0-102.89,46.45-102.89,102.89H174.7v68.59h.48v68.59c0,1.93-.16,3.84-.48,5.69.16.05.33.11.48.16v28.44h-34.3c-17,0-31.11-12.37-33.82-28.6-.32-1.85-.48-3.76-.48-5.69v-137.19H38v137.19c0,12.03,2.07,23.57,5.86,34.3,2.11,5.99,4.77,11.73,7.92,17.15,12.17,21.04,31.58,37.37,54.82,45.59.15.05.32.11.48.16,10.59,3.69,21.96,5.69,33.82,5.69s23.23-2,33.82-5.69c.32,1.85.48,3.76.48,5.69,0,18.95-15.35,34.3-34.3,34.3H38v68.59h102.89c12.03,0,23.57-2.07,34.3-5.86,29.23-10.33,52.4-33.5,62.73-62.73,3.79-10.73,5.86-22.27,5.86-34.3v-171.48h85.74v36.46c-29.32,7.53-51.06,33.97-51.44,65.55-.01.29-.01.59-.01.88s0,.59.01.89v101.12c-.01.29-.01.59-.01.88s0,.59.01.89c.47,37.47,31,67.7,68.58,67.7h34.31c37.89-.01,68.58-30.72,68.58-68.59h.01v-102.89c0-31.96-21.85-58.83-51.44-66.43v-36.46h187.26v195.34c-2.61,6.15-8.7,10.44-15.79,10.44-9.31,0-16.9-7.44-17.13-16.71v-154.77h-68.59v170.6c-.01.29-.01.59-.01.88s0,.59.01.89c.47,37.47,31,67.7,68.58,67.7h.01c11.94,0,23.14-3.05,32.92-8.42v8.42h69.96V200.48h34.3v274.37h68.59V200.48h34.3v274.37h68.59v-154.33c0-9.47,7.67-17.15,17.15-17.15s17.15,7.68,17.15,17.15v154.33h68.59v-171.48c0-37.88-30.7-68.59-68.59-68.59-12.5,0-24.21,3.35-34.3,9.19v-35.67Zm-480.15,129.37v51.44c0,9.47-7.68,17.15-17.15,17.15s-17.15-7.68-17.15-17.15v-68.59c0-9.47,7.67-17.15,17.15-17.15s17.15,7.68,17.15,17.15v17.15Z"/>
      <path class="cls-9" d="m859.11,207.3v-7.82h102.89v-68.59h-205.78c0-18.95,15.35-34.3,34.3-34.3V28c-56.44,0-102.89,46.45-102.89,102.89H172.7v68.59h.48v68.59c0,1.93-.16,3.84-.48,5.69.16.05.33.11.48.16v28.44h-34.3c-17,0-31.11-12.37-33.82-28.6-.32-1.85-.48-3.76-.48-5.69v-137.19H36v137.19c0,12.03,2.07,23.57,5.86,34.3,2.11,5.99,4.77,11.73,7.92,17.15,12.17,21.04,31.58,37.37,54.82,45.59.15.05.32.11.48.16,10.59,3.69,21.96,5.69,33.82,5.69s23.23-2,33.82-5.69c.32,1.85.48,3.76.48,5.69,0,18.95-15.35,34.3-34.3,34.3H36v68.59h102.89c12.03,0,23.57-2.07,34.3-5.86,29.23-10.33,52.4-33.5,62.73-62.73,3.79-10.73,5.86-22.27,5.86-34.3v-171.48h85.74v36.46c-29.32,7.53-51.06,33.97-51.44,65.55-.01.29-.01.59-.01.88s0,.59.01.89v101.12c-.01.29-.01.59-.01.88s0,.59.01.89c.47,37.47,31,67.7,68.58,67.7h34.31c37.89-.01,68.58-30.72,68.58-68.59h.01v-102.89c0-31.96-21.85-58.83-51.44-66.43v-36.46h187.26v195.34c-2.61,6.15-8.7,10.44-15.79,10.44-9.31,0-16.9-7.44-17.13-16.71v-154.77h-68.59v170.6c-.01.29-.01.59-.01.88s0,.59.01.89c.47,37.47,31,67.7,68.58,67.7h.01c11.94,0,23.14-3.05,32.92-8.42v8.42h69.96V199.48h34.3v274.37h68.59V199.48h34.3v274.37h68.59v-154.33c0-9.47,7.67-17.15,17.15-17.15s17.15,7.68,17.15,17.15v154.33h68.59v-171.48c0-37.88-30.7-68.59-68.59-68.59-12.5,0-24.21,3.35-34.3,9.19v-35.67Zm-480.15,129.37v51.44c0,9.47-7.68,17.15-17.15,17.15s-17.15-7.68-17.15-17.15v-68.59c0-9.47,7.67-17.15,17.15-17.15s17.15,7.68,17.15,17.15v17.15Z"/>
      <path class="cls-9" d="m857.11,206.3v-7.82h102.89v-68.59h-205.78c0-18.95,15.35-34.3,34.3-34.3V27c-56.44,0-102.89,46.45-102.89,102.89H170.7v68.59h.48v68.59c0,1.93-.16,3.84-.48,5.69.16.05.33.11.48.16v28.44h-34.3c-17,0-31.11-12.37-33.82-28.6-.32-1.85-.48-3.76-.48-5.69v-137.19H34v137.19c0,12.03,2.07,23.57,5.86,34.3,2.11,5.99,4.77,11.73,7.92,17.15,12.17,21.04,31.58,37.37,54.82,45.59.15.05.32.11.48.16,10.59,3.69,21.96,5.69,33.82,5.69s23.23-2,33.82-5.69c.32,1.85.48,3.76.48,5.69,0,18.95-15.35,34.3-34.3,34.3H34v68.59h102.89c12.03,0,23.57-2.07,34.3-5.86,29.23-10.33,52.4-33.5,62.73-62.73,3.79-10.73,5.86-22.27,5.86-34.3v-171.48h85.74v36.46c-29.32,7.53-51.06,33.97-51.44,65.55-.01.29-.01.59-.01.88s0,.59.01.89v101.12c-.01.29-.01.59-.01.88s0,.59.01.89c.47,37.47,31,67.7,68.58,67.7h34.31c37.89-.01,68.58-30.72,68.58-68.59h.01v-102.89c0-31.96-21.85-58.83-51.44-66.43v-36.46h187.26v195.34c-2.61,6.15-8.7,10.44-15.79,10.44-9.31,0-16.9-7.44-17.13-16.71v-154.77h-68.59v170.6c-.01.29-.01.59-.01.88s0,.59.01.89c.47,37.47,31,67.7,68.58,67.7h.01c11.94,0,23.14-3.05,32.92-8.42v8.42h69.96V198.48h34.3v274.37h68.59V198.48h34.3v274.37h68.59v-154.33c0-9.47,7.67-17.15,17.15-17.15s17.15,7.68,17.15,17.15v154.33h68.59v-171.48c0-37.88-30.7-68.59-68.59-68.59-12.5,0-24.21,3.35-34.3,9.19v-35.67Zm-480.15,129.37v51.44c0,9.47-7.68,17.15-17.15,17.15s-17.15-7.68-17.15-17.15v-68.59c0-9.47,7.67-17.15,17.15-17.15s17.15,7.68,17.15,17.15v17.15Z"/>
      <path class="cls-9" d="m855.11,205.3v-7.82h102.89v-68.59h-205.78c0-18.95,15.35-34.3,34.3-34.3V26c-56.44,0-102.89,46.45-102.89,102.89H168.7v68.59h.48v68.59c0,1.93-.16,3.84-.48,5.69.16.05.33.11.48.16v28.44h-34.3c-17,0-31.11-12.37-33.82-28.6-.32-1.85-.48-3.76-.48-5.69v-137.19H32v137.19c0,12.03,2.07,23.57,5.86,34.3,2.11,5.99,4.77,11.73,7.92,17.15,12.17,21.04,31.58,37.37,54.82,45.59.15.05.32.11.48.16,10.59,3.69,21.96,5.69,33.82,5.69s23.23-2,33.82-5.69c.32,1.85.48,3.76.48,5.69,0,18.95-15.35,34.3-34.3,34.3H32v68.59h102.89c12.03,0,23.57-2.07,34.3-5.86,29.23-10.33,52.4-33.5,62.73-62.73,3.79-10.73,5.86-22.27,5.86-34.3v-171.48h85.74v36.46c-29.32,7.53-51.06,33.97-51.44,65.55-.01.29-.01.59-.01.88s0,.59.01.89v101.12c-.01.29-.01.59-.01.88s0,.59.01.89c.47,37.47,31,67.7,68.58,67.7h34.31c37.89-.01,68.58-30.72,68.58-68.59h.01v-102.89c0-31.96-21.85-58.83-51.44-66.43v-36.46h187.26v195.34c-2.61,6.15-8.7,10.44-15.79,10.44-9.31,0-16.9-7.44-17.13-16.71v-154.77h-68.59v170.6c-.01.29-.01.59-.01.88s0,.59.01.89c.47,37.47,31,67.7,68.58,67.7h.01c11.94,0,23.14-3.05,32.92-8.42v8.42h69.96V197.48h34.3v274.37h68.59V197.48h34.3v274.37h68.59v-154.33c0-9.47,7.67-17.15,17.15-17.15s17.15,7.68,17.15,17.15v154.33h68.59v-171.48c0-37.88-30.7-68.59-68.59-68.59-12.5,0-24.21,3.35-34.3,9.19v-35.67Zm-480.15,129.37v51.44c0,9.47-7.68,17.15-17.15,17.15s-17.15-7.68-17.15-17.15v-68.59c0-9.47,7.67-17.15,17.15-17.15s17.15,7.68,17.15,17.15v17.15Z"/>
      <path class="cls-9" d="m853.11,204.3v-7.82h102.89v-68.59h-205.78c0-18.95,15.35-34.3,34.3-34.3V25c-56.44,0-102.89,46.45-102.89,102.89H166.7v68.59h.48v68.59c0,1.93-.16,3.84-.48,5.69.16.05.33.11.48.16v28.44h-34.3c-17,0-31.11-12.37-33.82-28.6-.32-1.85-.48-3.76-.48-5.69V127.89H30v137.19c0,12.03,2.07,23.57,5.86,34.3,2.11,5.99,4.77,11.73,7.92,17.15,12.17,21.04,31.58,37.37,54.82,45.59.15.05.32.11.48.16,10.59,3.69,21.96,5.69,33.82,5.69s23.23-2,33.82-5.69c.32,1.85.48,3.76.48,5.69,0,18.95-15.35,34.3-34.3,34.3H30v68.59h102.89c12.03,0,23.57-2.07,34.3-5.86,29.23-10.33,52.4-33.5,62.73-62.73,3.79-10.73,5.86-22.27,5.86-34.3v-171.48h85.74v36.46c-29.32,7.53-51.06,33.97-51.44,65.55-.01.29-.01.59-.01.88s0,.59.01.89v101.12c-.01.29-.01.59-.01.88s0,.59.01.89c.47,37.47,31,67.7,68.58,67.7h34.31c37.89-.01,68.58-30.72,68.58-68.59h.01v-102.89c0-31.96-21.85-58.83-51.44-66.43v-36.46h187.26v195.34c-2.61,6.15-8.7,10.44-15.79,10.44-9.31,0-16.9-7.44-17.13-16.71v-154.77h-68.59v170.6c-.01.29-.01.59-.01.88s0,.59.01.89c.47,37.47,31,67.7,68.58,67.7h.01c11.94,0,23.14-3.05,32.92-8.42v8.42h69.96V196.48h34.3v274.37h68.59V196.48h34.3v274.37h68.59v-154.33c0-9.47,7.67-17.15,17.15-17.15s17.15,7.68,17.15,17.15v154.33h68.59v-171.48c0-37.88-30.7-68.59-68.59-68.59-12.5,0-24.21,3.35-34.3,9.19v-35.67Zm-480.15,129.37v51.44c0,9.47-7.68,17.15-17.15,17.15s-17.15-7.68-17.15-17.15v-68.59c0-9.47,7.67-17.15,17.15-17.15s17.15,7.68,17.15,17.15v17.15Z"/>
      <path class="cls-9" d="m851.11,203.3v-7.82h102.89v-68.59h-205.78c0-18.95,15.35-34.3,34.3-34.3V24c-56.44,0-102.89,46.45-102.89,102.89H164.7v68.59h.48v68.59c0,1.93-.16,3.84-.48,5.69.16.05.33.11.48.16v28.44h-34.3c-17,0-31.11-12.37-33.82-28.6-.32-1.85-.48-3.76-.48-5.69V126.89H28v137.19c0,12.03,2.07,23.57,5.86,34.3,2.11,5.99,4.77,11.73,7.92,17.15,12.17,21.04,31.58,37.37,54.82,45.59.15.05.32.11.48.16,10.59,3.69,21.96,5.69,33.82,5.69s23.23-2,33.82-5.69c.32,1.85.48,3.76.48,5.69,0,18.95-15.35,34.3-34.3,34.3H28v68.59h102.89c12.03,0,23.57-2.07,34.3-5.86,29.23-10.33,52.4-33.5,62.73-62.73,3.79-10.73,5.86-22.27,5.86-34.3v-171.48h85.74v36.46c-29.32,7.53-51.06,33.97-51.44,65.55-.01.29-.01.59-.01.88s0,.59.01.89v101.12c-.01.29-.01.59-.01.88s0,.59.01.89c.47,37.47,31,67.7,68.58,67.7h34.31c37.89-.01,68.58-30.72,68.58-68.59h.01v-102.89c0-31.96-21.85-58.83-51.44-66.43v-36.46h187.26v195.34c-2.61,6.15-8.7,10.44-15.79,10.44-9.31,0-16.9-7.44-17.13-16.71v-154.77h-68.59v170.6c-.01.29-.01.59-.01.88s0,.59.01.89c.47,37.47,31,67.7,68.58,67.7h.01c11.94,0,23.14-3.05,32.92-8.42v8.42h69.96V195.48h34.3v274.37h68.59V195.48h34.3v274.37h68.59v-154.33c0-9.47,7.67-17.15,17.15-17.15s17.15,7.68,17.15,17.15v154.33h68.59v-171.48c0-37.88-30.7-68.59-68.59-68.59-12.5,0-24.21,3.35-34.3,9.19v-35.67Zm-480.15,129.37v51.44c0,9.47-7.68,17.15-17.15,17.15s-17.15-7.68-17.15-17.15v-68.59c0-9.47,7.67-17.15,17.15-17.15s17.15,7.68,17.15,17.15v17.15Z"/>
      <path class="cls-9" d="m849.11,202.3v-7.82h102.89v-68.59h-205.78c0-18.95,15.35-34.3,34.3-34.3V23c-56.44,0-102.89,46.45-102.89,102.89H162.7v68.59h.48v68.59c0,1.93-.16,3.84-.48,5.69.16.05.33.11.48.16v28.44h-34.3c-17,0-31.11-12.37-33.82-28.6-.32-1.85-.48-3.76-.48-5.69V125.89H26v137.19c0,12.03,2.07,23.57,5.86,34.3,2.11,5.99,4.77,11.73,7.92,17.15,12.17,21.04,31.58,37.37,54.82,45.59.15.05.32.11.48.16,10.59,3.69,21.96,5.69,33.82,5.69s23.23-2,33.82-5.69c.32,1.85.48,3.76.48,5.69,0,18.95-15.35,34.3-34.3,34.3H26v68.59h102.89c12.03,0,23.57-2.07,34.3-5.86,29.23-10.33,52.4-33.5,62.73-62.73,3.79-10.73,5.86-22.27,5.86-34.3v-171.48h85.74v36.46c-29.32,7.53-51.06,33.97-51.44,65.55-.01.29-.01.59-.01.88s0,.59.01.89v101.12c-.01.29-.01.59-.01.88s0,.59.01.89c.47,37.47,31,67.7,68.58,67.7h34.31c37.89-.01,68.58-30.72,68.58-68.59h.01v-102.89c0-31.96-21.85-58.83-51.44-66.43v-36.46h187.26v195.34c-2.61,6.15-8.7,10.44-15.79,10.44-9.31,0-16.9-7.44-17.13-16.71v-154.77h-68.59v170.6c-.01.29-.01.59-.01.88s0,.59.01.89c.47,37.47,31,67.7,68.58,67.7h.01c11.94,0,23.14-3.05,32.92-8.42v8.42h69.96V194.48h34.3v274.37h68.59V194.48h34.3v274.37h68.59v-154.33c0-9.47,7.67-17.15,17.15-17.15s17.15,7.68,17.15,17.15v154.33h68.59v-171.48c0-37.88-30.7-68.59-68.59-68.59-12.5,0-24.21,3.35-34.3,9.19v-35.67Zm-480.15,129.37v51.44c0,9.47-7.68,17.15-17.15,17.15s-17.15-7.68-17.15-17.15v-68.59c0-9.47,7.67-17.15,17.15-17.15s17.15,7.68,17.15,17.15v17.15Z"/>
      <path class="cls-9" d="m847.11,201.3v-7.82h102.89v-68.59h-205.78c0-18.95,15.35-34.3,34.3-34.3V22c-56.44,0-102.89,46.45-102.89,102.89H160.7v68.59h.48v68.59c0,1.93-.16,3.84-.48,5.69.16.05.33.11.48.16v28.44h-34.3c-17,0-31.11-12.37-33.82-28.6-.32-1.85-.48-3.76-.48-5.69V124.89H24v137.19c0,12.03,2.07,23.57,5.86,34.3,2.11,5.99,4.77,11.73,7.92,17.15,12.17,21.04,31.58,37.37,54.82,45.59.15.05.32.11.48.16,10.59,3.69,21.96,5.69,33.82,5.69s23.23-2,33.82-5.69c.32,1.85.48,3.76.48,5.69,0,18.95-15.35,34.3-34.3,34.3H24v68.59h102.89c12.03,0,23.57-2.07,34.3-5.86,29.23-10.33,52.4-33.5,62.73-62.73,3.79-10.73,5.86-22.27,5.86-34.3v-171.48h85.74v36.46c-29.32,7.53-51.06,33.97-51.44,65.55-.01.29-.01.59-.01.88s0,.59.01.89v101.12c-.01.29-.01.59-.01.88s0,.59.01.89c.47,37.47,31,67.7,68.58,67.7h34.31c37.89-.01,68.58-30.72,68.58-68.59h.01v-102.89c0-31.96-21.85-58.83-51.44-66.43v-36.46h187.26v195.34c-2.61,6.15-8.7,10.44-15.79,10.44-9.31,0-16.9-7.44-17.13-16.71v-154.77h-68.59v170.6c-.01.29-.01.59-.01.88s0,.59.01.89c.47,37.47,31,67.7,68.58,67.7h.01c11.94,0,23.14-3.05,32.92-8.42v8.42h69.96V193.48h34.3v274.37h68.59V193.48h34.3v274.37h68.59v-154.33c0-9.47,7.67-17.15,17.15-17.15s17.15,7.68,17.15,17.15v154.33h68.59v-171.48c0-37.88-30.7-68.59-68.59-68.59-12.5,0-24.21,3.35-34.3,9.19v-35.67Zm-480.15,129.37v51.44c0,9.47-7.68,17.15-17.15,17.15s-17.15-7.68-17.15-17.15v-68.59c0-9.47,7.67-17.15,17.15-17.15s17.15,7.68,17.15,17.15v17.15Z"/>
      <path class="cls-9" d="m845.11,200.3v-7.82h102.89v-68.59h-205.78c0-18.95,15.35-34.3,34.3-34.3V21c-56.44,0-102.89,46.45-102.89,102.89H158.7v68.59h.48v68.59c0,1.93-.16,3.84-.48,5.69.16.05.33.11.48.16v28.44h-34.3c-17,0-31.11-12.37-33.82-28.6-.32-1.85-.48-3.76-.48-5.69V123.89H22v137.19c0,12.03,2.07,23.57,5.86,34.3,2.11,5.99,4.77,11.73,7.92,17.15,12.17,21.04,31.58,37.37,54.82,45.59.15.05.32.11.48.16,10.59,3.69,21.96,5.69,33.82,5.69s23.23-2,33.82-5.69c.32,1.85.48,3.76.48,5.69,0,18.95-15.35,34.3-34.3,34.3H22v68.59h102.89c12.03,0,23.57-2.07,34.3-5.86,29.23-10.33,52.4-33.5,62.73-62.73,3.79-10.73,5.86-22.27,5.86-34.3v-171.48h85.74v36.46c-29.32,7.53-51.06,33.97-51.44,65.55-.01.29-.01.59-.01.88s0,.59.01.89v101.12c-.01.29-.01.59-.01.88s0,.59.01.89c.47,37.47,31,67.7,68.58,67.7h34.31c37.89-.01,68.58-30.72,68.58-68.59h.01v-102.89c0-31.96-21.85-58.83-51.44-66.43v-36.46h187.26v195.34c-2.61,6.15-8.7,10.44-15.79,10.44-9.31,0-16.9-7.44-17.13-16.71v-154.77h-68.59v170.6c-.01.29-.01.59-.01.88s0,.59.01.89c.47,37.47,31,67.7,68.58,67.7h.01c11.94,0,23.14-3.05,32.92-8.42v8.42h69.96V192.48h34.3v274.37h68.59V192.48h34.3v274.37h68.59v-154.33c0-9.47,7.67-17.15,17.15-17.15s17.15,7.68,17.15,17.15v154.33h68.59v-171.48c0-37.88-30.7-68.59-68.59-68.59-12.5,0-24.21,3.35-34.3,9.19v-35.67Zm-480.15,129.37v51.44c0,9.47-7.68,17.15-17.15,17.15s-17.15-7.68-17.15-17.15v-68.59c0-9.47,7.67-17.15,17.15-17.15s17.15,7.68,17.15,17.15v17.15Z"/>
      <path class="cls-9" d="m843.11,199.3v-7.82h102.89v-68.59h-205.78c0-18.95,15.35-34.3,34.3-34.3V20c-56.44,0-102.89,46.45-102.89,102.89H156.7v68.59h.48v68.59c0,1.93-.16,3.84-.48,5.69.16.05.33.11.48.16v28.44h-34.3c-17,0-31.11-12.37-33.82-28.6-.32-1.85-.48-3.76-.48-5.69V122.89H20v137.19c0,12.03,2.07,23.57,5.86,34.3,2.11,5.99,4.77,11.73,7.92,17.15,12.17,21.04,31.58,37.37,54.82,45.59.15.05.32.11.48.16,10.59,3.69,21.96,5.69,33.82,5.69s23.23-2,33.82-5.69c.32,1.85.48,3.76.48,5.69,0,18.95-15.35,34.3-34.3,34.3H20v68.59h102.89c12.03,0,23.57-2.07,34.3-5.86,29.23-10.33,52.4-33.5,62.73-62.73,3.79-10.73,5.86-22.27,5.86-34.3v-171.48h85.74v36.46c-29.32,7.53-51.06,33.97-51.44,65.55-.01.29-.01.59-.01.88s0,.59.01.89v101.12c-.01.29-.01.59-.01.88s0,.59.01.89c.47,37.47,31,67.7,68.58,67.7h34.31c37.89-.01,68.58-30.72,68.58-68.59h.01v-102.89c0-31.96-21.85-58.83-51.44-66.43v-36.46h187.26v195.34c-2.61,6.15-8.7,10.44-15.79,10.44-9.31,0-16.9-7.44-17.13-16.71v-154.77h-68.59v170.6c-.01.29-.01.59-.01.88s0,.59.01.89c.47,37.47,31,67.7,68.58,67.7h.01c11.94,0,23.14-3.05,32.92-8.42v8.42h69.96V191.48h34.3v274.37h68.59V191.48h34.3v274.37h68.59v-154.33c0-9.47,7.67-17.15,17.15-17.15s17.15,7.68,17.15,17.15v154.33h68.59v-171.48c0-37.88-30.7-68.59-68.59-68.59-12.5,0-24.21,3.35-34.3,9.19v-35.67Zm-480.15,129.37v51.44c0,9.47-7.68,17.15-17.15,17.15s-17.15-7.68-17.15-17.15v-68.59c0-9.47,7.67-17.15,17.15-17.15s17.15,7.68,17.15,17.15v17.15Z"/>
    </g>
    <path class="cls-13" d="m843.11,199.3v-7.82h102.89v-68.59h-205.78c0-18.95,15.35-34.3,34.3-34.3V20c-56.44,0-102.89,46.45-102.89,102.89H156.7v68.59h.48v68.59c0,1.93-.16,3.84-.48,5.69.16.05.33.11.48.16v28.44h-34.3c-17,0-31.11-12.37-33.82-28.6-.32-1.85-.48-3.76-.48-5.69V122.89H20v137.19c0,12.03,2.07,23.57,5.86,34.3,2.11,5.99,4.77,11.73,7.92,17.15,12.17,21.04,31.58,37.37,54.82,45.59.15.05.32.11.48.16,10.59,3.69,21.96,5.69,33.82,5.69s23.23-2,33.82-5.69c.32,1.85.48,3.76.48,5.69,0,18.95-15.35,34.3-34.3,34.3H20v68.59h102.89c12.03,0,23.57-2.07,34.3-5.86,29.23-10.33,52.4-33.5,62.73-62.73,3.79-10.73,5.86-22.27,5.86-34.3v-171.48h85.74v36.46c-29.32,7.53-51.06,33.97-51.44,65.55-.01.29-.01.59-.01.88s0,.59.01.89v101.12c-.01.29-.01.59-.01.88s0,.59.01.89c.47,37.47,31,67.7,68.58,67.7h34.31c37.89-.01,68.58-30.72,68.58-68.59h.01v-102.89c0-31.96-21.85-58.83-51.44-66.43v-36.46h187.26v195.34c-2.61,6.15-8.7,10.44-15.79,10.44-9.31,0-16.9-7.44-17.13-16.71v-154.77h-68.59v170.6c-.01.29-.01.59-.01.88s0,.59.01.89c.47,37.47,31,67.7,68.58,67.7h.01c11.94,0,23.14-3.05,32.92-8.42v8.42h69.96V191.48h34.3v274.37h68.59V191.48h34.3v274.37h68.59v-154.33c0-9.47,7.67-17.15,17.15-17.15s17.15,7.68,17.15,17.15v154.33h68.59v-171.48c0-37.88-30.7-68.59-68.59-68.59-12.5,0-24.21,3.35-34.3,9.19v-35.67Zm-480.15,129.37v51.44c0,9.47-7.68,17.15-17.15,17.15s-17.15-7.68-17.15-17.15v-68.59c0-9.47,7.67-17.15,17.15-17.15s17.15,7.68,17.15,17.15v17.15Z"/>
  </g>
  <g>
    <g>
      <path class="cls-9" d="m230.98,661.13v-89.46c0-39.29-42.43-64.23-76.56-44.77-.24.13-.47.27-.71.4s-.47.27-.7.41c-33.92,19.82-33.53,69.04.49,88.68l77.48,44.73Z"/>
      <path class="cls-9" d="m228.98,660.13v-89.46c0-39.29-42.43-64.23-76.56-44.77-.24.13-.47.27-.71.4s-.47.27-.7.41c-33.92,19.82-33.53,69.04.49,88.68l77.48,44.73Z"/>
      <path class="cls-9" d="m226.98,659.13v-89.46c0-39.29-42.43-64.23-76.56-44.77-.24.13-.47.27-.71.4s-.47.27-.7.41c-33.92,19.82-33.53,69.04.49,88.68l77.48,44.73Z"/>
      <path class="cls-9" d="m224.98,658.13v-89.46c0-39.29-42.43-64.23-76.56-44.77-.24.13-.47.27-.71.4s-.47.27-.7.41c-33.92,19.82-33.53,69.04.49,88.68l77.48,44.73Z"/>
      <path class="cls-9" d="m222.98,657.13v-89.46c0-39.29-42.43-64.23-76.56-44.77-.24.13-.47.27-.71.4s-.47.27-.7.41c-33.92,19.82-33.53,69.04.49,88.68l77.48,44.73Z"/>
      <path class="cls-9" d="m220.98,656.13v-89.46c0-39.29-42.43-64.23-76.56-44.77-.24.13-.47.27-.71.4s-.47.27-.7.41c-33.92,19.82-33.53,69.04.49,88.68l77.48,44.73Z"/>
      <path class="cls-9" d="m218.98,655.13v-89.46c0-39.29-42.43-64.23-76.56-44.77-.24.13-.47.27-.71.4s-.47.27-.7.41c-33.92,19.82-33.53,69.04.49,88.68l77.48,44.73Z"/>
      <path class="cls-9" d="m216.98,654.13v-89.46c0-39.29-42.43-64.23-76.56-44.77-.24.13-.47.27-.71.4s-.47.27-.7.41c-33.92,19.82-33.53,69.04.49,88.68l77.48,44.73Z"/>
      <path class="cls-9" d="m214.98,653.13v-89.46c0-39.29-42.43-64.23-76.56-44.77-.24.13-.47.27-.71.4s-.47.27-.7.41c-33.92,19.82-33.53,69.04.49,88.68l77.48,44.73Z"/>
      <path class="cls-9" d="m212.98,652.13v-89.46c0-39.29-42.43-64.23-76.56-44.77-.24.13-.47.27-.71.4s-.47.27-.7.41c-33.92,19.82-33.53,69.04.49,88.68l77.48,44.73Z"/>
      <path class="cls-9" d="m210.98,651.13v-89.46c0-39.29-42.43-64.23-76.56-44.77-.24.13-.47.27-.71.4s-.47.27-.7.41c-33.92,19.82-33.53,69.04.49,88.68l77.48,44.73Z"/>
      <path class="cls-9" d="m208.98,650.13v-89.46c0-39.29-42.43-64.23-76.56-44.77-.24.13-.47.27-.71.4s-.47.27-.7.41c-33.92,19.82-33.53,69.04.49,88.68l77.48,44.73Z"/>
      <path class="cls-9" d="m206.98,649.13v-89.46c0-39.29-42.43-64.23-76.56-44.77-.24.13-.47.27-.71.4s-.47.27-.7.41c-33.92,19.82-33.53,69.04.49,88.68l77.48,44.73Z"/>
      <path class="cls-9" d="m204.98,648.13v-89.46c0-39.29-42.43-64.23-76.56-44.77-.24.13-.47.27-.71.4s-.47.27-.7.41c-33.92,19.82-33.53,69.04.49,88.68l77.48,44.73Z"/>
      <path class="cls-9" d="m202.98,647.13v-89.46c0-39.29-42.43-64.23-76.56-44.77-.24.13-.47.27-.71.4s-.47.27-.7.41c-33.92,19.82-33.53,69.04.49,88.68l77.48,44.73Z"/>
      <path class="cls-9" d="m200.98,646.13v-89.46c0-39.29-42.43-64.23-76.56-44.77-.24.13-.47.27-.71.4s-.47.27-.7.41c-33.92,19.82-33.53,69.04.49,88.68l77.48,44.73Z"/>
      <path class="cls-9" d="m198.98,645.13v-89.46c0-39.29-42.43-64.23-76.56-44.77-.24.13-.47.27-.71.4s-.47.27-.7.41c-33.92,19.82-33.53,69.04.49,88.68l77.48,44.73Z"/>
      <path class="cls-9" d="m196.98,644.13v-89.46c0-39.29-42.43-64.23-76.56-44.77-.24.13-.47.27-.71.4s-.47.27-.7.41c-33.92,19.82-33.53,69.04.49,88.68l77.48,44.73Z"/>
      <path class="cls-9" d="m194.98,643.13v-89.46c0-39.29-42.43-64.23-76.56-44.77-.24.13-.47.27-.71.4s-.47.27-.7.41c-33.92,19.82-33.53,69.04.49,88.68l77.48,44.73Z"/>
      <path class="cls-9" d="m192.98,642.13v-89.46c0-39.29-42.43-64.23-76.56-44.77-.24.13-.47.27-.71.4s-.47.27-.7.41c-33.92,19.82-33.53,69.04.49,88.68l77.48,44.73Z"/>
      <path class="cls-9" d="m190.98,641.13v-89.46c0-39.29-42.43-64.23-76.56-44.77-.24.13-.47.27-.71.4s-.47.27-.7.41c-33.92,19.82-33.53,69.04.49,88.68l77.48,44.73Z"/>
    </g>
    <path class="cls-1" d="m190.98,641.13v-89.46c0-39.29-42.43-64.23-76.56-44.77-.24.13-.47.27-.71.4s-.47.27-.7.41c-33.92,19.82-33.53,69.04.49,88.68l77.48,44.73Z"/>
  </g>
  <path class="cls-11" d="m174.77,615.43v-61.34c0-26.94-29.09-44.04-52.5-30.7-.16.09-.32.18-.48.28s-.32.19-.48.28c-23.26,13.59-23,47.34.34,60.81l53.13,30.67Z"/>
  <g>
    <g>
      <path class="cls-9" d="m219.13,682.28l-79.78,46.06c-35.04,20.23-79.13-4.77-79.34-45.22,0-.28,0-.56,0-.84s0-.56,0-.84c.21-40.46,44.3-65.45,79.34-45.22l79.78,46.06Z"/>
      <path class="cls-9" d="m217.13,681.28l-79.78,46.06c-35.04,20.23-79.13-4.77-79.34-45.22,0-.28,0-.56,0-.84s0-.56,0-.84c.21-40.46,44.3-65.45,79.34-45.22l79.78,46.06Z"/>
      <path class="cls-9" d="m215.13,680.28l-79.78,46.06c-35.04,20.23-79.13-4.77-79.34-45.22,0-.28,0-.56,0-.84s0-.56,0-.84c.21-40.46,44.3-65.45,79.34-45.22l79.78,46.06Z"/>
      <path class="cls-9" d="m213.13,679.28l-79.78,46.06c-35.04,20.23-79.13-4.77-79.34-45.22,0-.28,0-.56,0-.84s0-.56,0-.84c.21-40.46,44.3-65.45,79.34-45.22l79.78,46.06Z"/>
      <path class="cls-9" d="m211.13,678.28l-79.78,46.06c-35.04,20.23-79.13-4.77-79.34-45.22,0-.28,0-.56,0-.84s0-.56,0-.84c.21-40.46,44.3-65.45,79.34-45.22l79.78,46.06Z"/>
      <path class="cls-9" d="m209.13,677.28l-79.78,46.06c-35.04,20.23-79.13-4.77-79.34-45.22,0-.28,0-.56,0-.84s0-.56,0-.84c.21-40.46,44.3-65.45,79.34-45.22l79.78,46.06Z"/>
      <path class="cls-9" d="m207.13,676.28l-79.78,46.06c-35.04,20.23-79.13-4.77-79.34-45.22,0-.28,0-.56,0-.84s0-.56,0-.84c.21-40.46,44.3-65.45,79.34-45.22l79.78,46.06Z"/>
      <path class="cls-9" d="m205.13,675.28l-79.78,46.06c-35.04,20.23-79.13-4.77-79.34-45.22,0-.28,0-.56,0-.84s0-.56,0-.84c.21-40.46,44.3-65.45,79.34-45.22l79.78,46.06Z"/>
      <path class="cls-9" d="m203.13,674.28l-79.78,46.06c-35.04,20.23-79.13-4.77-79.34-45.22,0-.28,0-.56,0-.84s0-.56,0-.84c.21-40.46,44.3-65.45,79.34-45.22l79.78,46.06Z"/>
      <path class="cls-9" d="m201.13,673.28l-79.78,46.06c-35.04,20.23-79.13-4.77-79.34-45.22,0-.28,0-.56,0-.84s0-.56,0-.84c.21-40.46,44.3-65.45,79.34-45.22l79.78,46.06Z"/>
      <path class="cls-9" d="m199.13,672.28l-79.78,46.06c-35.04,20.23-79.13-4.77-79.34-45.22,0-.28,0-.56,0-.84s0-.56,0-.84c.21-40.46,44.3-65.45,79.34-45.22l79.78,46.06Z"/>
      <path class="cls-9" d="m197.13,671.28l-79.78,46.06c-35.04,20.23-79.13-4.77-79.34-45.22,0-.28,0-.56,0-.84s0-.56,0-.84c.21-40.46,44.3-65.45,79.34-45.22l79.78,46.06Z"/>
      <path class="cls-9" d="m195.13,670.28l-79.78,46.06c-35.04,20.23-79.13-4.77-79.34-45.22,0-.28,0-.56,0-.84s0-.56,0-.84c.21-40.46,44.3-65.45,79.34-45.22l79.78,46.06Z"/>
      <path class="cls-9" d="m193.13,669.28l-79.78,46.06c-35.04,20.23-79.13-4.77-79.34-45.22,0-.28,0-.56,0-.84s0-.56,0-.84c.21-40.46,44.3-65.45,79.34-45.22l79.78,46.06Z"/>
      <path class="cls-9" d="m191.13,668.28l-79.78,46.06c-35.04,20.23-79.13-4.77-79.34-45.22,0-.28,0-.56,0-.84s0-.56,0-.84c.21-40.46,44.3-65.45,79.34-45.22l79.78,46.06Z"/>
      <path class="cls-9" d="m189.13,667.28l-79.78,46.06c-35.04,20.23-79.13-4.77-79.34-45.22,0-.28,0-.56,0-.84s0-.56,0-.84c.21-40.46,44.3-65.45,79.34-45.22l79.78,46.06Z"/>
      <path class="cls-9" d="m187.13,666.28l-79.78,46.06c-35.04,20.23-79.13-4.77-79.34-45.22,0-.28,0-.56,0-.84s0-.56,0-.84c.21-40.46,44.3-65.45,79.34-45.22l79.78,46.06Z"/>
      <path class="cls-9" d="m185.13,665.28l-79.78,46.06c-35.04,20.23-79.13-4.77-79.34-45.22,0-.28,0-.56,0-.84s0-.56,0-.84c.21-40.46,44.3-65.45,79.34-45.22l79.78,46.06Z"/>
      <path class="cls-9" d="m183.13,664.28l-79.78,46.06c-35.04,20.23-79.13-4.77-79.34-45.22,0-.28,0-.56,0-.84s0-.56,0-.84c.21-40.46,44.3-65.45,79.34-45.22l79.78,46.06Z"/>
      <path class="cls-9" d="m181.13,663.28l-79.78,46.06c-35.04,20.23-79.13-4.77-79.34-45.22,0-.28,0-.56,0-.84s0-.56,0-.84c.21-40.46,44.3-65.45,79.34-45.22l79.78,46.06Z"/>
      <path class="cls-9" d="m179.13,662.28l-79.78,46.06c-35.04,20.23-79.13-4.77-79.34-45.22,0-.28,0-.56,0-.84s0-.56,0-.84c.21-40.46,44.3-65.45,79.34-45.22l79.78,46.06Z"/>
    </g>
    <path class="cls-1" d="m179.13,662.28l-79.78,46.06c-35.04,20.23-79.13-4.77-79.34-45.22,0-.28,0-.56,0-.84s0-.56,0-.84c.21-40.46,44.3-65.45,79.34-45.22l79.78,46.06Z"/>
  </g>
  <g>
    <g>
      <path class="cls-9" d="m231.02,700.47v96.52c0,42.39-45.78,69.3-82.6,48.3-.25-.14-.51-.29-.76-.44s-.51-.29-.76-.44c-36.6-21.39-36.18-74.49.53-95.68l83.59-48.26Z"/>
      <path class="cls-9" d="m229.02,699.47v96.52c0,42.39-45.78,69.3-82.6,48.3-.25-.14-.51-.29-.76-.44s-.51-.29-.76-.44c-36.6-21.39-36.18-74.49.53-95.68l83.59-48.26Z"/>
      <path class="cls-9" d="m227.02,698.47v96.52c0,42.39-45.78,69.3-82.6,48.3-.25-.14-.51-.29-.76-.44s-.51-.29-.76-.44c-36.6-21.39-36.18-74.49.53-95.68l83.59-48.26Z"/>
      <path class="cls-9" d="m225.02,697.47v96.52c0,42.39-45.78,69.3-82.6,48.3-.25-.14-.51-.29-.76-.44s-.51-.29-.76-.44c-36.6-21.39-36.18-74.49.53-95.68l83.59-48.26Z"/>
      <path class="cls-9" d="m223.02,696.47v96.52c0,42.39-45.78,69.3-82.6,48.3-.25-.14-.51-.29-.76-.44s-.51-.29-.76-.44c-36.6-21.39-36.18-74.49.53-95.68l83.59-48.26Z"/>
      <path class="cls-9" d="m221.02,695.47v96.52c0,42.39-45.78,69.3-82.6,48.3-.25-.14-.51-.29-.76-.44s-.51-.29-.76-.44c-36.6-21.39-36.18-74.49.53-95.68l83.59-48.26Z"/>
      <path class="cls-9" d="m219.02,694.47v96.52c0,42.39-45.78,69.3-82.6,48.3-.25-.14-.51-.29-.76-.44s-.51-.29-.76-.44c-36.6-21.39-36.18-74.49.53-95.68l83.59-48.26Z"/>
      <path class="cls-9" d="m217.02,693.47v96.52c0,42.39-45.78,69.3-82.6,48.3-.25-.14-.51-.29-.76-.44s-.51-.29-.76-.44c-36.6-21.39-36.18-74.49.53-95.68l83.59-48.26Z"/>
      <path class="cls-9" d="m215.02,692.47v96.52c0,42.39-45.78,69.3-82.6,48.3-.25-.14-.51-.29-.76-.44s-.51-.29-.76-.44c-36.6-21.39-36.18-74.49.53-95.68l83.59-48.26Z"/>
      <path class="cls-9" d="m213.02,691.47v96.52c0,42.39-45.78,69.3-82.6,48.3-.25-.14-.51-.29-.76-.44s-.51-.29-.76-.44c-36.6-21.39-36.18-74.49.53-95.68l83.59-48.26Z"/>
      <path class="cls-9" d="m211.02,690.47v96.52c0,42.39-45.78,69.3-82.6,48.3-.25-.14-.51-.29-.76-.44s-.51-.29-.76-.44c-36.6-21.39-36.18-74.49.53-95.68l83.59-48.26Z"/>
      <path class="cls-9" d="m209.02,689.47v96.52c0,42.39-45.78,69.3-82.6,48.3-.25-.14-.51-.29-.76-.44s-.51-.29-.76-.44c-36.6-21.39-36.18-74.49.53-95.68l83.59-48.26Z"/>
      <path class="cls-9" d="m207.02,688.47v96.52c0,42.39-45.78,69.3-82.6,48.3-.25-.14-.51-.29-.76-.44s-.51-.29-.76-.44c-36.6-21.39-36.18-74.49.53-95.68l83.59-48.26Z"/>
      <path class="cls-9" d="m205.02,687.47v96.52c0,42.39-45.78,69.3-82.6,48.3-.25-.14-.51-.29-.76-.44s-.51-.29-.76-.44c-36.6-21.39-36.18-74.49.53-95.68l83.59-48.26Z"/>
      <path class="cls-9" d="m203.02,686.47v96.52c0,42.39-45.78,69.3-82.6,48.3-.25-.14-.51-.29-.76-.44s-.51-.29-.76-.44c-36.6-21.39-36.18-74.49.53-95.68l83.59-48.26Z"/>
      <path class="cls-9" d="m201.02,685.47v96.52c0,42.39-45.78,69.3-82.6,48.3-.25-.14-.51-.29-.76-.44s-.51-.29-.76-.44c-36.6-21.39-36.18-74.49.53-95.68l83.59-48.26Z"/>
      <path class="cls-9" d="m199.02,684.47v96.52c0,42.39-45.78,69.3-82.6,48.3-.25-.14-.51-.29-.76-.44s-.51-.29-.76-.44c-36.6-21.39-36.18-74.49.53-95.68l83.59-48.26Z"/>
      <path class="cls-9" d="m197.02,683.47v96.52c0,42.39-45.78,69.3-82.6,48.3-.25-.14-.51-.29-.76-.44s-.51-.29-.76-.44c-36.6-21.39-36.18-74.49.53-95.68l83.59-48.26Z"/>
      <path class="cls-9" d="m195.02,682.47v96.52c0,42.39-45.78,69.3-82.6,48.3-.25-.14-.51-.29-.76-.44s-.51-.29-.76-.44c-36.6-21.39-36.18-74.49.53-95.68l83.59-48.26Z"/>
      <path class="cls-9" d="m193.02,681.47v96.52c0,42.39-45.78,69.3-82.6,48.3-.25-.14-.51-.29-.76-.44s-.51-.29-.76-.44c-36.6-21.39-36.18-74.49.53-95.68l83.59-48.26Z"/>
      <path class="cls-9" d="m191.02,680.47v96.52c0,42.39-45.78,69.3-82.6,48.3-.25-.14-.51-.29-.76-.44s-.51-.29-.76-.44c-36.6-21.39-36.18-74.49.53-95.68l83.59-48.26Z"/>
    </g>
    <path class="cls-1" d="m191.02,680.47v96.52c0,42.39-45.78,69.3-82.6,48.3-.25-.14-.51-.29-.76-.44s-.51-.29-.76-.44c-36.6-21.39-36.18-74.49.53-95.68l83.59-48.26Z"/>
  </g>
  <g>
    <g>
      <path class="cls-13" d="m465.85,593.45v249.66h68.59v-249.66c-10.04,6.09-21.77,9.59-34.3,9.59s-24.25-3.5-34.3-9.59Z"/>
      <path d="m894.55,568.74h51.44v-68.59h-387.63c5.72,10.08,9,21.8,9,34.3s-3.28,24.21-9,34.3h10.37v274.37h68.59v-9.19c10.08,5.84,21.8,9.19,34.3,9.19,37.89,0,68.59-30.72,68.59-68.59v-102.89c0-37.88-30.72-68.59-68.59-68.59-12.5,0-24.21,3.35-34.3,9.18v-43.47h188.63v36.46c-29.59,7.6-51.44,34.46-51.44,66.43v102.89c0,37.89,30.7,68.59,68.59,68.59h102.89v-68.59h-85.74c-9.48,0-17.15-7.68-17.15-17.15v-17.15h34.3c7.96,0,15.6-1.36,22.7-3.85,15.57-5.45,28.58-16.37,36.71-30.44,5.83-10.08,9.18-21.8,9.18-34.3,0-31.96-21.85-58.83-51.44-66.43v-36.46Zm-222.93,120.04v68.59c0,9.47-7.68,17.15-17.15,17.15s-17.15-7.68-17.15-17.15v-68.59c0-9.47,7.68-17.15,17.15-17.15s17.15,7.68,17.15,17.15Zm188.63,0c-9.48,0-17.15-7.68-17.15-17.15s7.67-17.15,17.15-17.15,17.15,7.68,17.15,17.15-7.68,17.15-17.15,17.15Z"/>
      <path d="m431.56,500.15h-68.59v240.07c0,18.95-15.35,34.3-34.3,34.3h-34.3v-274.37h-68.59v342.96h102.89c12.03,0,23.57-2.07,34.3-5.86,29.23-10.33,52.4-33.5,62.73-62.73,3.79-10.73,5.86-22.27,5.86-34.3v-171.48h10.37c-5.72-10.08-9-21.8-9-34.3s3.28-24.21,9-34.3h-10.37Z"/>
      <circle cx="500.15" cy="534.44" r="51.44"/>
    </g>
    <g>
      <g>
        <path class="cls-9" d="m505.85,613.45v249.66h68.59v-249.66c-10.04,6.09-21.77,9.59-34.3,9.59s-24.25-3.5-34.3-9.59Z"/>
        <path class="cls-9" d="m934.55,588.74h51.44v-68.59h-387.63c5.72,10.08,9,21.8,9,34.3s-3.28,24.21-9,34.3h10.37v274.37h68.59v-9.19c10.08,5.84,21.8,9.19,34.3,9.19,37.89,0,68.59-30.72,68.59-68.59v-102.89c0-37.88-30.72-68.59-68.59-68.59-12.5,0-24.21,3.35-34.3,9.18v-43.47h188.63v36.46c-29.59,7.6-51.44,34.46-51.44,66.43v102.89c0,37.89,30.7,68.59,68.59,68.59h102.89v-68.59h-85.74c-9.48,0-17.15-7.68-17.15-17.15v-17.15h34.3c7.96,0,15.6-1.36,22.7-3.85,15.57-5.45,28.58-16.37,36.71-30.44,5.83-10.08,9.18-21.8,9.18-34.3,0-31.96-21.85-58.83-51.44-66.43v-36.46Zm-222.93,120.04v68.59c0,9.47-7.68,17.15-17.15,17.15s-17.15-7.68-17.15-17.15v-68.59c0-9.47,7.68-17.15,17.15-17.15s17.15,7.68,17.15,17.15Zm188.63,0c-9.48,0-17.15-7.68-17.15-17.15s7.67-17.15,17.15-17.15,17.15,7.68,17.15,17.15-7.68,17.15-17.15,17.15Z"/>
        <path class="cls-9" d="m471.56,520.15h-68.59v240.07c0,18.95-15.35,34.3-34.3,34.3h-34.3v-274.37h-68.59v342.96h102.89c12.03,0,23.57-2.07,34.3-5.86,29.23-10.33,52.4-33.5,62.73-62.73,3.79-10.73,5.86-22.27,5.86-34.3v-171.48h10.37c-5.72-10.08-9-21.8-9-34.3s3.28-24.21,9-34.3h-10.37Z"/>
        <circle class="cls-9" cx="540.15" cy="554.44" r="51.44"/>
      </g>
      <g>
        <path class="cls-9" d="m503.85,612.45v249.66h68.59v-249.66c-10.04,6.09-21.77,9.59-34.3,9.59s-24.25-3.5-34.3-9.59Z"/>
        <path class="cls-9" d="m932.55,587.74h51.44v-68.59h-387.63c5.72,10.08,9,21.8,9,34.3s-3.28,24.21-9,34.3h10.37v274.37h68.59v-9.19c10.08,5.84,21.8,9.19,34.3,9.19,37.89,0,68.59-30.72,68.59-68.59v-102.89c0-37.88-30.72-68.59-68.59-68.59-12.5,0-24.21,3.35-34.3,9.18v-43.47h188.63v36.46c-29.59,7.6-51.44,34.46-51.44,66.43v102.89c0,37.89,30.7,68.59,68.59,68.59h102.89v-68.59h-85.74c-9.48,0-17.15-7.68-17.15-17.15v-17.15h34.3c7.96,0,15.6-1.36,22.7-3.85,15.57-5.45,28.58-16.37,36.71-30.44,5.83-10.08,9.18-21.8,9.18-34.3,0-31.96-21.85-58.83-51.44-66.43v-36.46Zm-222.93,120.04v68.59c0,9.47-7.68,17.15-17.15,17.15s-17.15-7.68-17.15-17.15v-68.59c0-9.47,7.68-17.15,17.15-17.15s17.15,7.68,17.15,17.15Zm188.63,0c-9.48,0-17.15-7.68-17.15-17.15s7.67-17.15,17.15-17.15,17.15,7.68,17.15,17.15-7.68,17.15-17.15,17.15Z"/>
        <path class="cls-9" d="m469.56,519.15h-68.59v240.07c0,18.95-15.35,34.3-34.3,34.3h-34.3v-274.37h-68.59v342.96h102.89c12.03,0,23.57-2.07,34.3-5.86,29.23-10.33,52.4-33.5,62.73-62.73,3.79-10.73,5.86-22.27,5.86-34.3v-171.48h10.37c-5.72-10.08-9-21.8-9-34.3s3.28-24.21,9-34.3h-10.37Z"/>
        <circle class="cls-9" cx="538.15" cy="553.44" r="51.44"/>
      </g>
      <g>
        <path class="cls-9" d="m501.85,611.45v249.66h68.59v-249.66c-10.04,6.09-21.77,9.59-34.3,9.59s-24.25-3.5-34.3-9.59Z"/>
        <path class="cls-9" d="m930.55,586.74h51.44v-68.59h-387.63c5.72,10.08,9,21.8,9,34.3s-3.28,24.21-9,34.3h10.37v274.37h68.59v-9.19c10.08,5.84,21.8,9.19,34.3,9.19,37.89,0,68.59-30.72,68.59-68.59v-102.89c0-37.88-30.72-68.59-68.59-68.59-12.5,0-24.21,3.35-34.3,9.18v-43.47h188.63v36.46c-29.59,7.6-51.44,34.46-51.44,66.43v102.89c0,37.89,30.7,68.59,68.59,68.59h102.89v-68.59h-85.74c-9.48,0-17.15-7.68-17.15-17.15v-17.15h34.3c7.96,0,15.6-1.36,22.7-3.85,15.57-5.45,28.58-16.37,36.71-30.44,5.83-10.08,9.18-21.8,9.18-34.3,0-31.96-21.85-58.83-51.44-66.43v-36.46Zm-222.93,120.04v68.59c0,9.47-7.68,17.15-17.15,17.15s-17.15-7.68-17.15-17.15v-68.59c0-9.47,7.68-17.15,17.15-17.15s17.15,7.68,17.15,17.15Zm188.63,0c-9.48,0-17.15-7.68-17.15-17.15s7.67-17.15,17.15-17.15,17.15,7.68,17.15,17.15-7.68,17.15-17.15,17.15Z"/>
        <path class="cls-9" d="m467.56,518.15h-68.59v240.07c0,18.95-15.35,34.3-34.3,34.3h-34.3v-274.37h-68.59v342.96h102.89c12.03,0,23.57-2.07,34.3-5.86,29.23-10.33,52.4-33.5,62.73-62.73,3.79-10.73,5.86-22.27,5.86-34.3v-171.48h10.37c-5.72-10.08-9-21.8-9-34.3s3.28-24.21,9-34.3h-10.37Z"/>
        <circle class="cls-9" cx="536.15" cy="552.44" r="51.44"/>
      </g>
      <g>
        <path class="cls-9" d="m499.85,610.45v249.66h68.59v-249.66c-10.04,6.09-21.77,9.59-34.3,9.59s-24.25-3.5-34.3-9.59Z"/>
        <path class="cls-9" d="m928.55,585.74h51.44v-68.59h-387.63c5.72,10.08,9,21.8,9,34.3s-3.28,24.21-9,34.3h10.37v274.37h68.59v-9.19c10.08,5.84,21.8,9.19,34.3,9.19,37.89,0,68.59-30.72,68.59-68.59v-102.89c0-37.88-30.72-68.59-68.59-68.59-12.5,0-24.21,3.35-34.3,9.18v-43.47h188.63v36.46c-29.59,7.6-51.44,34.46-51.44,66.43v102.89c0,37.89,30.7,68.59,68.59,68.59h102.89v-68.59h-85.74c-9.48,0-17.15-7.68-17.15-17.15v-17.15h34.3c7.96,0,15.6-1.36,22.7-3.85,15.57-5.45,28.58-16.37,36.71-30.44,5.83-10.08,9.18-21.8,9.18-34.3,0-31.96-21.85-58.83-51.44-66.43v-36.46Zm-222.93,120.04v68.59c0,9.47-7.68,17.15-17.15,17.15s-17.15-7.68-17.15-17.15v-68.59c0-9.47,7.68-17.15,17.15-17.15s17.15,7.68,17.15,17.15Zm188.63,0c-9.48,0-17.15-7.68-17.15-17.15s7.67-17.15,17.15-17.15,17.15,7.68,17.15,17.15-7.68,17.15-17.15,17.15Z"/>
        <path class="cls-9" d="m465.56,517.15h-68.59v240.07c0,18.95-15.35,34.3-34.3,34.3h-34.3v-274.37h-68.59v342.96h102.89c12.03,0,23.57-2.07,34.3-5.86,29.23-10.33,52.4-33.5,62.73-62.73,3.79-10.73,5.86-22.27,5.86-34.3v-171.48h10.37c-5.72-10.08-9-21.8-9-34.3s3.28-24.21,9-34.3h-10.37Z"/>
        <circle class="cls-9" cx="534.15" cy="551.44" r="51.44"/>
      </g>
      <g>
        <path class="cls-9" d="m497.85,609.45v249.66h68.59v-249.66c-10.04,6.09-21.77,9.59-34.3,9.59s-24.25-3.5-34.3-9.59Z"/>
        <path class="cls-9" d="m926.55,584.74h51.44v-68.59h-387.63c5.72,10.08,9,21.8,9,34.3s-3.28,24.21-9,34.3h10.37v274.37h68.59v-9.19c10.08,5.84,21.8,9.19,34.3,9.19,37.89,0,68.59-30.72,68.59-68.59v-102.89c0-37.88-30.72-68.59-68.59-68.59-12.5,0-24.21,3.35-34.3,9.18v-43.47h188.63v36.46c-29.59,7.6-51.44,34.46-51.44,66.43v102.89c0,37.89,30.7,68.59,68.59,68.59h102.89v-68.59h-85.74c-9.48,0-17.15-7.68-17.15-17.15v-17.15h34.3c7.96,0,15.6-1.36,22.7-3.85,15.57-5.45,28.58-16.37,36.71-30.44,5.83-10.08,9.18-21.8,9.18-34.3,0-31.96-21.85-58.83-51.44-66.43v-36.46Zm-222.93,120.04v68.59c0,9.47-7.68,17.15-17.15,17.15s-17.15-7.68-17.15-17.15v-68.59c0-9.47,7.68-17.15,17.15-17.15s17.15,7.68,17.15,17.15Zm188.63,0c-9.48,0-17.15-7.68-17.15-17.15s7.67-17.15,17.15-17.15,17.15,7.68,17.15,17.15-7.68,17.15-17.15,17.15Z"/>
        <path class="cls-9" d="m463.56,516.15h-68.59v240.07c0,18.95-15.35,34.3-34.3,34.3h-34.3v-274.37h-68.59v342.96h102.89c12.03,0,23.57-2.07,34.3-5.86,29.23-10.33,52.4-33.5,62.73-62.73,3.79-10.73,5.86-22.27,5.86-34.3v-171.48h10.37c-5.72-10.08-9-21.8-9-34.3s3.28-24.21,9-34.3h-10.37Z"/>
        <circle class="cls-9" cx="532.15" cy="550.44" r="51.44"/>
      </g>
      <g>
        <path class="cls-9" d="m495.85,608.45v249.66h68.59v-249.66c-10.04,6.09-21.77,9.59-34.3,9.59s-24.25-3.5-34.3-9.59Z"/>
        <path class="cls-9" d="m924.55,583.74h51.44v-68.59h-387.63c5.72,10.08,9,21.8,9,34.3s-3.28,24.21-9,34.3h10.37v274.37h68.59v-9.19c10.08,5.84,21.8,9.19,34.3,9.19,37.89,0,68.59-30.72,68.59-68.59v-102.89c0-37.88-30.72-68.59-68.59-68.59-12.5,0-24.21,3.35-34.3,9.18v-43.47h188.63v36.46c-29.59,7.6-51.44,34.46-51.44,66.43v102.89c0,37.89,30.7,68.59,68.59,68.59h102.89v-68.59h-85.74c-9.48,0-17.15-7.68-17.15-17.15v-17.15h34.3c7.96,0,15.6-1.36,22.7-3.85,15.57-5.45,28.58-16.37,36.71-30.44,5.83-10.08,9.18-21.8,9.18-34.3,0-31.96-21.85-58.83-51.44-66.43v-36.46Zm-222.93,120.04v68.59c0,9.47-7.68,17.15-17.15,17.15s-17.15-7.68-17.15-17.15v-68.59c0-9.47,7.68-17.15,17.15-17.15s17.15,7.68,17.15,17.15Zm188.63,0c-9.48,0-17.15-7.68-17.15-17.15s7.67-17.15,17.15-17.15,17.15,7.68,17.15,17.15-7.68,17.15-17.15,17.15Z"/>
        <path class="cls-9" d="m461.56,515.15h-68.59v240.07c0,18.95-15.35,34.3-34.3,34.3h-34.3v-274.37h-68.59v342.96h102.89c12.03,0,23.57-2.07,34.3-5.86,29.23-10.33,52.4-33.5,62.73-62.73,3.79-10.73,5.86-22.27,5.86-34.3v-171.48h10.37c-5.72-10.08-9-21.8-9-34.3s3.28-24.21,9-34.3h-10.37Z"/>
        <circle class="cls-9" cx="530.15" cy="549.44" r="51.44"/>
      </g>
      <g>
        <path class="cls-9" d="m493.85,607.45v249.66h68.59v-249.66c-10.04,6.09-21.77,9.59-34.3,9.59s-24.25-3.5-34.3-9.59Z"/>
        <path class="cls-9" d="m922.55,582.74h51.44v-68.59h-387.63c5.72,10.08,9,21.8,9,34.3s-3.28,24.21-9,34.3h10.37v274.37h68.59v-9.19c10.08,5.84,21.8,9.19,34.3,9.19,37.89,0,68.59-30.72,68.59-68.59v-102.89c0-37.88-30.72-68.59-68.59-68.59-12.5,0-24.21,3.35-34.3,9.18v-43.47h188.63v36.46c-29.59,7.6-51.44,34.46-51.44,66.43v102.89c0,37.89,30.7,68.59,68.59,68.59h102.89v-68.59h-85.74c-9.48,0-17.15-7.68-17.15-17.15v-17.15h34.3c7.96,0,15.6-1.36,22.7-3.85,15.57-5.45,28.58-16.37,36.71-30.44,5.83-10.08,9.18-21.8,9.18-34.3,0-31.96-21.85-58.83-51.44-66.43v-36.46Zm-222.93,120.04v68.59c0,9.47-7.68,17.15-17.15,17.15s-17.15-7.68-17.15-17.15v-68.59c0-9.47,7.68-17.15,17.15-17.15s17.15,7.68,17.15,17.15Zm188.63,0c-9.48,0-17.15-7.68-17.15-17.15s7.67-17.15,17.15-17.15,17.15,7.68,17.15,17.15-7.68,17.15-17.15,17.15Z"/>
        <path class="cls-9" d="m459.56,514.15h-68.59v240.07c0,18.95-15.35,34.3-34.3,34.3h-34.3v-274.37h-68.59v342.96h102.89c12.03,0,23.57-2.07,34.3-5.86,29.23-10.33,52.4-33.5,62.73-62.73,3.79-10.73,5.86-22.27,5.86-34.3v-171.48h10.37c-5.72-10.08-9-21.8-9-34.3s3.28-24.21,9-34.3h-10.37Z"/>
        <circle class="cls-9" cx="528.15" cy="548.44" r="51.44"/>
      </g>
      <g>
        <path class="cls-9" d="m491.85,606.45v249.66h68.59v-249.66c-10.04,6.09-21.77,9.59-34.3,9.59s-24.25-3.5-34.3-9.59Z"/>
        <path class="cls-9" d="m920.55,581.74h51.44v-68.59h-387.63c5.72,10.08,9,21.8,9,34.3s-3.28,24.21-9,34.3h10.37v274.37h68.59v-9.19c10.08,5.84,21.8,9.19,34.3,9.19,37.89,0,68.59-30.72,68.59-68.59v-102.89c0-37.88-30.72-68.59-68.59-68.59-12.5,0-24.21,3.35-34.3,9.18v-43.47h188.63v36.46c-29.59,7.6-51.44,34.46-51.44,66.43v102.89c0,37.89,30.7,68.59,68.59,68.59h102.89v-68.59h-85.74c-9.48,0-17.15-7.68-17.15-17.15v-17.15h34.3c7.96,0,15.6-1.36,22.7-3.85,15.57-5.45,28.58-16.37,36.71-30.44,5.83-10.08,9.18-21.8,9.18-34.3,0-31.96-21.85-58.83-51.44-66.43v-36.46Zm-222.93,120.04v68.59c0,9.47-7.68,17.15-17.15,17.15s-17.15-7.68-17.15-17.15v-68.59c0-9.47,7.68-17.15,17.15-17.15s17.15,7.68,17.15,17.15Zm188.63,0c-9.48,0-17.15-7.68-17.15-17.15s7.67-17.15,17.15-17.15,17.15,7.68,17.15,17.15-7.68,17.15-17.15,17.15Z"/>
        <path class="cls-9" d="m457.56,513.15h-68.59v240.07c0,18.95-15.35,34.3-34.3,34.3h-34.3v-274.37h-68.59v342.96h102.89c12.03,0,23.57-2.07,34.3-5.86,29.23-10.33,52.4-33.5,62.73-62.73,3.79-10.73,5.86-22.27,5.86-34.3v-171.48h10.37c-5.72-10.08-9-21.8-9-34.3s3.28-24.21,9-34.3h-10.37Z"/>
        <circle class="cls-9" cx="526.15" cy="547.44" r="51.44"/>
      </g>
      <g>
        <path class="cls-9" d="m489.85,605.45v249.66h68.59v-249.66c-10.04,6.09-21.77,9.59-34.3,9.59s-24.25-3.5-34.3-9.59Z"/>
        <path class="cls-9" d="m918.55,580.74h51.44v-68.59h-387.63c5.72,10.08,9,21.8,9,34.3s-3.28,24.21-9,34.3h10.37v274.37h68.59v-9.19c10.08,5.84,21.8,9.19,34.3,9.19,37.89,0,68.59-30.72,68.59-68.59v-102.89c0-37.88-30.72-68.59-68.59-68.59-12.5,0-24.21,3.35-34.3,9.18v-43.47h188.63v36.46c-29.59,7.6-51.44,34.46-51.44,66.43v102.89c0,37.89,30.7,68.59,68.59,68.59h102.89v-68.59h-85.74c-9.48,0-17.15-7.68-17.15-17.15v-17.15h34.3c7.96,0,15.6-1.36,22.7-3.85,15.57-5.45,28.58-16.37,36.71-30.44,5.83-10.08,9.18-21.8,9.18-34.3,0-31.96-21.85-58.83-51.44-66.43v-36.46Zm-222.93,120.04v68.59c0,9.47-7.68,17.15-17.15,17.15s-17.15-7.68-17.15-17.15v-68.59c0-9.47,7.68-17.15,17.15-17.15s17.15,7.68,17.15,17.15Zm188.63,0c-9.48,0-17.15-7.68-17.15-17.15s7.67-17.15,17.15-17.15,17.15,7.68,17.15,17.15-7.68,17.15-17.15,17.15Z"/>
        <path class="cls-9" d="m455.56,512.15h-68.59v240.07c0,18.95-15.35,34.3-34.3,34.3h-34.3v-274.37h-68.59v342.96h102.89c12.03,0,23.57-2.07,34.3-5.86,29.23-10.33,52.4-33.5,62.73-62.73,3.79-10.73,5.86-22.27,5.86-34.3v-171.48h10.37c-5.72-10.08-9-21.8-9-34.3s3.28-24.21,9-34.3h-10.37Z"/>
        <circle class="cls-9" cx="524.15" cy="546.44" r="51.44"/>
      </g>
      <g>
        <path class="cls-9" d="m487.85,604.45v249.66h68.59v-249.66c-10.04,6.09-21.77,9.59-34.3,9.59s-24.25-3.5-34.3-9.59Z"/>
        <path class="cls-9" d="m916.55,579.74h51.44v-68.59h-387.63c5.72,10.08,9,21.8,9,34.3s-3.28,24.21-9,34.3h10.37v274.37h68.59v-9.19c10.08,5.84,21.8,9.19,34.3,9.19,37.89,0,68.59-30.72,68.59-68.59v-102.89c0-37.88-30.72-68.59-68.59-68.59-12.5,0-24.21,3.35-34.3,9.18v-43.47h188.63v36.46c-29.59,7.6-51.44,34.46-51.44,66.43v102.89c0,37.89,30.7,68.59,68.59,68.59h102.89v-68.59h-85.74c-9.48,0-17.15-7.68-17.15-17.15v-17.15h34.3c7.96,0,15.6-1.36,22.7-3.85,15.57-5.45,28.58-16.37,36.71-30.44,5.83-10.08,9.18-21.8,9.18-34.3,0-31.96-21.85-58.83-51.44-66.43v-36.46Zm-222.93,120.04v68.59c0,9.47-7.68,17.15-17.15,17.15s-17.15-7.68-17.15-17.15v-68.59c0-9.47,7.68-17.15,17.15-17.15s17.15,7.68,17.15,17.15Zm188.63,0c-9.48,0-17.15-7.68-17.15-17.15s7.67-17.15,17.15-17.15,17.15,7.68,17.15,17.15-7.68,17.15-17.15,17.15Z"/>
        <path class="cls-9" d="m453.56,511.15h-68.59v240.07c0,18.95-15.35,34.3-34.3,34.3h-34.3v-274.37h-68.59v342.96h102.89c12.03,0,23.57-2.07,34.3-5.86,29.23-10.33,52.4-33.5,62.73-62.73,3.79-10.73,5.86-22.27,5.86-34.3v-171.48h10.37c-5.72-10.08-9-21.8-9-34.3s3.28-24.21,9-34.3h-10.37Z"/>
        <circle class="cls-9" cx="522.15" cy="545.44" r="51.44"/>
      </g>
      <g>
        <path class="cls-9" d="m485.85,603.45v249.66h68.59v-249.66c-10.04,6.09-21.77,9.59-34.3,9.59s-24.25-3.5-34.3-9.59Z"/>
        <path class="cls-9" d="m914.55,578.74h51.44v-68.59h-387.63c5.72,10.08,9,21.8,9,34.3s-3.28,24.21-9,34.3h10.37v274.37h68.59v-9.19c10.08,5.84,21.8,9.19,34.3,9.19,37.89,0,68.59-30.72,68.59-68.59v-102.89c0-37.88-30.72-68.59-68.59-68.59-12.5,0-24.21,3.35-34.3,9.18v-43.47h188.63v36.46c-29.59,7.6-51.44,34.46-51.44,66.43v102.89c0,37.89,30.7,68.59,68.59,68.59h102.89v-68.59h-85.74c-9.48,0-17.15-7.68-17.15-17.15v-17.15h34.3c7.96,0,15.6-1.36,22.7-3.85,15.57-5.45,28.58-16.37,36.71-30.44,5.83-10.08,9.18-21.8,9.18-34.3,0-31.96-21.85-58.83-51.44-66.43v-36.46Zm-222.93,120.04v68.59c0,9.47-7.68,17.15-17.15,17.15s-17.15-7.68-17.15-17.15v-68.59c0-9.47,7.68-17.15,17.15-17.15s17.15,7.68,17.15,17.15Zm188.63,0c-9.48,0-17.15-7.68-17.15-17.15s7.67-17.15,17.15-17.15,17.15,7.68,17.15,17.15-7.68,17.15-17.15,17.15Z"/>
        <path class="cls-9" d="m451.56,510.15h-68.59v240.07c0,18.95-15.35,34.3-34.3,34.3h-34.3v-274.37h-68.59v342.96h102.89c12.03,0,23.57-2.07,34.3-5.86,29.23-10.33,52.4-33.5,62.73-62.73,3.79-10.73,5.86-22.27,5.86-34.3v-171.48h10.37c-5.72-10.08-9-21.8-9-34.3s3.28-24.21,9-34.3h-10.37Z"/>
        <circle class="cls-9" cx="520.15" cy="544.44" r="51.44"/>
      </g>
      <g>
        <path class="cls-9" d="m483.85,602.45v249.66h68.59v-249.66c-10.04,6.09-21.77,9.59-34.3,9.59s-24.25-3.5-34.3-9.59Z"/>
        <path class="cls-9" d="m912.55,577.74h51.44v-68.59h-387.63c5.72,10.08,9,21.8,9,34.3s-3.28,24.21-9,34.3h10.37v274.37h68.59v-9.19c10.08,5.84,21.8,9.19,34.3,9.19,37.89,0,68.59-30.72,68.59-68.59v-102.89c0-37.88-30.72-68.59-68.59-68.59-12.5,0-24.21,3.35-34.3,9.18v-43.47h188.63v36.46c-29.59,7.6-51.44,34.46-51.44,66.43v102.89c0,37.89,30.7,68.59,68.59,68.59h102.89v-68.59h-85.74c-9.48,0-17.15-7.68-17.15-17.15v-17.15h34.3c7.96,0,15.6-1.36,22.7-3.85,15.57-5.45,28.58-16.37,36.71-30.44,5.83-10.08,9.18-21.8,9.18-34.3,0-31.96-21.85-58.83-51.44-66.43v-36.46Zm-222.93,120.04v68.59c0,9.47-7.68,17.15-17.15,17.15s-17.15-7.68-17.15-17.15v-68.59c0-9.47,7.68-17.15,17.15-17.15s17.15,7.68,17.15,17.15Zm188.63,0c-9.48,0-17.15-7.68-17.15-17.15s7.67-17.15,17.15-17.15,17.15,7.68,17.15,17.15-7.68,17.15-17.15,17.15Z"/>
        <path class="cls-9" d="m449.56,509.15h-68.59v240.07c0,18.95-15.35,34.3-34.3,34.3h-34.3v-274.37h-68.59v342.96h102.89c12.03,0,23.57-2.07,34.3-5.86,29.23-10.33,52.4-33.5,62.73-62.73,3.79-10.73,5.86-22.27,5.86-34.3v-171.48h10.37c-5.72-10.08-9-21.8-9-34.3s3.28-24.21,9-34.3h-10.37Z"/>
        <circle class="cls-9" cx="518.15" cy="543.44" r="51.44"/>
      </g>
      <g>
        <path class="cls-9" d="m481.85,601.45v249.66h68.59v-249.66c-10.04,6.09-21.77,9.59-34.3,9.59s-24.25-3.5-34.3-9.59Z"/>
        <path class="cls-9" d="m910.55,576.74h51.44v-68.59h-387.63c5.72,10.08,9,21.8,9,34.3s-3.28,24.21-9,34.3h10.37v274.37h68.59v-9.19c10.08,5.84,21.8,9.19,34.3,9.19,37.89,0,68.59-30.72,68.59-68.59v-102.89c0-37.88-30.72-68.59-68.59-68.59-12.5,0-24.21,3.35-34.3,9.18v-43.47h188.63v36.46c-29.59,7.6-51.44,34.46-51.44,66.43v102.89c0,37.89,30.7,68.59,68.59,68.59h102.89v-68.59h-85.74c-9.48,0-17.15-7.68-17.15-17.15v-17.15h34.3c7.96,0,15.6-1.36,22.7-3.85,15.57-5.45,28.58-16.37,36.71-30.44,5.83-10.08,9.18-21.8,9.18-34.3,0-31.96-21.85-58.83-51.44-66.43v-36.46Zm-222.93,120.04v68.59c0,9.47-7.68,17.15-17.15,17.15s-17.15-7.68-17.15-17.15v-68.59c0-9.47,7.68-17.15,17.15-17.15s17.15,7.68,17.15,17.15Zm188.63,0c-9.48,0-17.15-7.68-17.15-17.15s7.67-17.15,17.15-17.15,17.15,7.68,17.15,17.15-7.68,17.15-17.15,17.15Z"/>
        <path class="cls-9" d="m447.56,508.15h-68.59v240.07c0,18.95-15.35,34.3-34.3,34.3h-34.3v-274.37h-68.59v342.96h102.89c12.03,0,23.57-2.07,34.3-5.86,29.23-10.33,52.4-33.5,62.73-62.73,3.79-10.73,5.86-22.27,5.86-34.3v-171.48h10.37c-5.72-10.08-9-21.8-9-34.3s3.28-24.21,9-34.3h-10.37Z"/>
        <circle class="cls-9" cx="516.15" cy="542.44" r="51.44"/>
      </g>
      <g>
        <path class="cls-9" d="m479.85,600.45v249.66h68.59v-249.66c-10.04,6.09-21.77,9.59-34.3,9.59s-24.25-3.5-34.3-9.59Z"/>
        <path class="cls-9" d="m908.55,575.74h51.44v-68.59h-387.63c5.72,10.08,9,21.8,9,34.3s-3.28,24.21-9,34.3h10.37v274.37h68.59v-9.19c10.08,5.84,21.8,9.19,34.3,9.19,37.89,0,68.59-30.72,68.59-68.59v-102.89c0-37.88-30.72-68.59-68.59-68.59-12.5,0-24.21,3.35-34.3,9.18v-43.47h188.63v36.46c-29.59,7.6-51.44,34.46-51.44,66.43v102.89c0,37.89,30.7,68.59,68.59,68.59h102.89v-68.59h-85.74c-9.48,0-17.15-7.68-17.15-17.15v-17.15h34.3c7.96,0,15.6-1.36,22.7-3.85,15.57-5.45,28.58-16.37,36.71-30.44,5.83-10.08,9.18-21.8,9.18-34.3,0-31.96-21.85-58.83-51.44-66.43v-36.46Zm-222.93,120.04v68.59c0,9.47-7.68,17.15-17.15,17.15s-17.15-7.68-17.15-17.15v-68.59c0-9.47,7.68-17.15,17.15-17.15s17.15,7.68,17.15,17.15Zm188.63,0c-9.48,0-17.15-7.68-17.15-17.15s7.67-17.15,17.15-17.15,17.15,7.68,17.15,17.15-7.68,17.15-17.15,17.15Z"/>
        <path class="cls-9" d="m445.56,507.15h-68.59v240.07c0,18.95-15.35,34.3-34.3,34.3h-34.3v-274.37h-68.59v342.96h102.89c12.03,0,23.57-2.07,34.3-5.86,29.23-10.33,52.4-33.5,62.73-62.73,3.79-10.73,5.86-22.27,5.86-34.3v-171.48h10.37c-5.72-10.08-9-21.8-9-34.3s3.28-24.21,9-34.3h-10.37Z"/>
        <circle class="cls-9" cx="514.15" cy="541.44" r="51.44"/>
      </g>
      <g>
        <path class="cls-9" d="m477.85,599.45v249.66h68.59v-249.66c-10.04,6.09-21.77,9.59-34.3,9.59s-24.25-3.5-34.3-9.59Z"/>
        <path class="cls-9" d="m906.55,574.74h51.44v-68.59h-387.63c5.72,10.08,9,21.8,9,34.3s-3.28,24.21-9,34.3h10.37v274.37h68.59v-9.19c10.08,5.84,21.8,9.19,34.3,9.19,37.89,0,68.59-30.72,68.59-68.59v-102.89c0-37.88-30.72-68.59-68.59-68.59-12.5,0-24.21,3.35-34.3,9.18v-43.47h188.63v36.46c-29.59,7.6-51.44,34.46-51.44,66.43v102.89c0,37.89,30.7,68.59,68.59,68.59h102.89v-68.59h-85.74c-9.48,0-17.15-7.68-17.15-17.15v-17.15h34.3c7.96,0,15.6-1.36,22.7-3.85,15.57-5.45,28.58-16.37,36.71-30.44,5.83-10.08,9.18-21.8,9.18-34.3,0-31.96-21.85-58.83-51.44-66.43v-36.46Zm-222.93,120.04v68.59c0,9.47-7.68,17.15-17.15,17.15s-17.15-7.68-17.15-17.15v-68.59c0-9.47,7.68-17.15,17.15-17.15s17.15,7.68,17.15,17.15Zm188.63,0c-9.48,0-17.15-7.68-17.15-17.15s7.67-17.15,17.15-17.15,17.15,7.68,17.15,17.15-7.68,17.15-17.15,17.15Z"/>
        <path class="cls-9" d="m443.56,506.15h-68.59v240.07c0,18.95-15.35,34.3-34.3,34.3h-34.3v-274.37h-68.59v342.96h102.89c12.03,0,23.57-2.07,34.3-5.86,29.23-10.33,52.4-33.5,62.73-62.73,3.79-10.73,5.86-22.27,5.86-34.3v-171.48h10.37c-5.72-10.08-9-21.8-9-34.3s3.28-24.21,9-34.3h-10.37Z"/>
        <circle class="cls-9" cx="512.15" cy="540.44" r="51.44"/>
      </g>
      <g>
        <path class="cls-9" d="m475.85,598.45v249.66h68.59v-249.66c-10.04,6.09-21.77,9.59-34.3,9.59s-24.25-3.5-34.3-9.59Z"/>
        <path class="cls-9" d="m904.55,573.74h51.44v-68.59h-387.63c5.72,10.08,9,21.8,9,34.3s-3.28,24.21-9,34.3h10.37v274.37h68.59v-9.19c10.08,5.84,21.8,9.19,34.3,9.19,37.89,0,68.59-30.72,68.59-68.59v-102.89c0-37.88-30.72-68.59-68.59-68.59-12.5,0-24.21,3.35-34.3,9.18v-43.47h188.63v36.46c-29.59,7.6-51.44,34.46-51.44,66.43v102.89c0,37.89,30.7,68.59,68.59,68.59h102.89v-68.59h-85.74c-9.48,0-17.15-7.68-17.15-17.15v-17.15h34.3c7.96,0,15.6-1.36,22.7-3.85,15.57-5.45,28.58-16.37,36.71-30.44,5.83-10.08,9.18-21.8,9.18-34.3,0-31.96-21.85-58.83-51.44-66.43v-36.46Zm-222.93,120.04v68.59c0,9.47-7.68,17.15-17.15,17.15s-17.15-7.68-17.15-17.15v-68.59c0-9.47,7.68-17.15,17.15-17.15s17.15,7.68,17.15,17.15Zm188.63,0c-9.48,0-17.15-7.68-17.15-17.15s7.67-17.15,17.15-17.15,17.15,7.68,17.15,17.15-7.68,17.15-17.15,17.15Z"/>
        <path class="cls-9" d="m441.56,505.15h-68.59v240.07c0,18.95-15.35,34.3-34.3,34.3h-34.3v-274.37h-68.59v342.96h102.89c12.03,0,23.57-2.07,34.3-5.86,29.23-10.33,52.4-33.5,62.73-62.73,3.79-10.73,5.86-22.27,5.86-34.3v-171.48h10.37c-5.72-10.08-9-21.8-9-34.3s3.28-24.21,9-34.3h-10.37Z"/>
        <circle class="cls-9" cx="510.15" cy="539.44" r="51.44"/>
      </g>
      <g>
        <path class="cls-9" d="m473.85,597.45v249.66h68.59v-249.66c-10.04,6.09-21.77,9.59-34.3,9.59s-24.25-3.5-34.3-9.59Z"/>
        <path class="cls-9" d="m902.55,572.74h51.44v-68.59h-387.63c5.72,10.08,9,21.8,9,34.3s-3.28,24.21-9,34.3h10.37v274.37h68.59v-9.19c10.08,5.84,21.8,9.19,34.3,9.19,37.89,0,68.59-30.72,68.59-68.59v-102.89c0-37.88-30.72-68.59-68.59-68.59-12.5,0-24.21,3.35-34.3,9.18v-43.47h188.63v36.46c-29.59,7.6-51.44,34.46-51.44,66.43v102.89c0,37.89,30.7,68.59,68.59,68.59h102.89v-68.59h-85.74c-9.48,0-17.15-7.68-17.15-17.15v-17.15h34.3c7.96,0,15.6-1.36,22.7-3.85,15.57-5.45,28.58-16.37,36.71-30.44,5.83-10.08,9.18-21.8,9.18-34.3,0-31.96-21.85-58.83-51.44-66.43v-36.46Zm-222.93,120.04v68.59c0,9.47-7.68,17.15-17.15,17.15s-17.15-7.68-17.15-17.15v-68.59c0-9.47,7.68-17.15,17.15-17.15s17.15,7.68,17.15,17.15Zm188.63,0c-9.48,0-17.15-7.68-17.15-17.15s7.67-17.15,17.15-17.15,17.15,7.68,17.15,17.15-7.68,17.15-17.15,17.15Z"/>
        <path class="cls-9" d="m439.56,504.15h-68.59v240.07c0,18.95-15.35,34.3-34.3,34.3h-34.3v-274.37h-68.59v342.96h102.89c12.03,0,23.57-2.07,34.3-5.86,29.23-10.33,52.4-33.5,62.73-62.73,3.79-10.73,5.86-22.27,5.86-34.3v-171.48h10.37c-5.72-10.08-9-21.8-9-34.3s3.28-24.21,9-34.3h-10.37Z"/>
        <circle class="cls-9" cx="508.15" cy="538.44" r="51.44"/>
      </g>
      <g>
        <path class="cls-9" d="m471.85,596.45v249.66h68.59v-249.66c-10.04,6.09-21.77,9.59-34.3,9.59s-24.25-3.5-34.3-9.59Z"/>
        <path class="cls-9" d="m900.55,571.74h51.44v-68.59h-387.63c5.72,10.08,9,21.8,9,34.3s-3.28,24.21-9,34.3h10.37v274.37h68.59v-9.19c10.08,5.84,21.8,9.19,34.3,9.19,37.89,0,68.59-30.72,68.59-68.59v-102.89c0-37.88-30.72-68.59-68.59-68.59-12.5,0-24.21,3.35-34.3,9.18v-43.47h188.63v36.46c-29.59,7.6-51.44,34.46-51.44,66.43v102.89c0,37.89,30.7,68.59,68.59,68.59h102.89v-68.59h-85.74c-9.48,0-17.15-7.68-17.15-17.15v-17.15h34.3c7.96,0,15.6-1.36,22.7-3.85,15.57-5.45,28.58-16.37,36.71-30.44,5.83-10.08,9.18-21.8,9.18-34.3,0-31.96-21.85-58.83-51.44-66.43v-36.46Zm-222.93,120.04v68.59c0,9.47-7.68,17.15-17.15,17.15s-17.15-7.68-17.15-17.15v-68.59c0-9.47,7.68-17.15,17.15-17.15s17.15,7.68,17.15,17.15Zm188.63,0c-9.48,0-17.15-7.68-17.15-17.15s7.67-17.15,17.15-17.15,17.15,7.68,17.15,17.15-7.68,17.15-17.15,17.15Z"/>
        <path class="cls-9" d="m437.56,503.15h-68.59v240.07c0,18.95-15.35,34.3-34.3,34.3h-34.3v-274.37h-68.59v342.96h102.89c12.03,0,23.57-2.07,34.3-5.86,29.23-10.33,52.4-33.5,62.73-62.73,3.79-10.73,5.86-22.27,5.86-34.3v-171.48h10.37c-5.72-10.08-9-21.8-9-34.3s3.28-24.21,9-34.3h-10.37Z"/>
        <circle class="cls-9" cx="506.15" cy="537.44" r="51.44"/>
      </g>
      <g>
        <path class="cls-9" d="m469.85,595.45v249.66h68.59v-249.66c-10.04,6.09-21.77,9.59-34.3,9.59s-24.25-3.5-34.3-9.59Z"/>
        <path class="cls-9" d="m898.55,570.74h51.44v-68.59h-387.63c5.72,10.08,9,21.8,9,34.3s-3.28,24.21-9,34.3h10.37v274.37h68.59v-9.19c10.08,5.84,21.8,9.19,34.3,9.19,37.89,0,68.59-30.72,68.59-68.59v-102.89c0-37.88-30.72-68.59-68.59-68.59-12.5,0-24.21,3.35-34.3,9.18v-43.47h188.63v36.46c-29.59,7.6-51.44,34.46-51.44,66.43v102.89c0,37.89,30.7,68.59,68.59,68.59h102.89v-68.59h-85.74c-9.48,0-17.15-7.68-17.15-17.15v-17.15h34.3c7.96,0,15.6-1.36,22.7-3.85,15.57-5.45,28.58-16.37,36.71-30.44,5.83-10.08,9.18-21.8,9.18-34.3,0-31.96-21.85-58.83-51.44-66.43v-36.46Zm-222.93,120.04v68.59c0,9.47-7.68,17.15-17.15,17.15s-17.15-7.68-17.15-17.15v-68.59c0-9.47,7.68-17.15,17.15-17.15s17.15,7.68,17.15,17.15Zm188.63,0c-9.48,0-17.15-7.68-17.15-17.15s7.67-17.15,17.15-17.15,17.15,7.68,17.15,17.15-7.68,17.15-17.15,17.15Z"/>
        <path class="cls-9" d="m435.56,502.15h-68.59v240.07c0,18.95-15.35,34.3-34.3,34.3h-34.3v-274.37h-68.59v342.96h102.89c12.03,0,23.57-2.07,34.3-5.86,29.23-10.33,52.4-33.5,62.73-62.73,3.79-10.73,5.86-22.27,5.86-34.3v-171.48h10.37c-5.72-10.08-9-21.8-9-34.3s3.28-24.21,9-34.3h-10.37Z"/>
        <circle class="cls-9" cx="504.15" cy="536.44" r="51.44"/>
      </g>
      <g>
        <path class="cls-9" d="m467.85,594.45v249.66h68.59v-249.66c-10.04,6.09-21.77,9.59-34.3,9.59s-24.25-3.5-34.3-9.59Z"/>
        <path class="cls-9" d="m896.55,569.74h51.44v-68.59h-387.63c5.72,10.08,9,21.8,9,34.3s-3.28,24.21-9,34.3h10.37v274.37h68.59v-9.19c10.08,5.84,21.8,9.19,34.3,9.19,37.89,0,68.59-30.72,68.59-68.59v-102.89c0-37.88-30.72-68.59-68.59-68.59-12.5,0-24.21,3.35-34.3,9.18v-43.47h188.63v36.46c-29.59,7.6-51.44,34.46-51.44,66.43v102.89c0,37.89,30.7,68.59,68.59,68.59h102.89v-68.59h-85.74c-9.48,0-17.15-7.68-17.15-17.15v-17.15h34.3c7.96,0,15.6-1.36,22.7-3.85,15.57-5.45,28.58-16.37,36.71-30.44,5.83-10.08,9.18-21.8,9.18-34.3,0-31.96-21.85-58.83-51.44-66.43v-36.46Zm-222.93,120.04v68.59c0,9.47-7.68,17.15-17.15,17.15s-17.15-7.68-17.15-17.15v-68.59c0-9.47,7.68-17.15,17.15-17.15s17.15,7.68,17.15,17.15Zm188.63,0c-9.48,0-17.15-7.68-17.15-17.15s7.67-17.15,17.15-17.15,17.15,7.68,17.15,17.15-7.68,17.15-17.15,17.15Z"/>
        <path class="cls-9" d="m433.56,501.15h-68.59v240.07c0,18.95-15.35,34.3-34.3,34.3h-34.3v-274.37h-68.59v342.96h102.89c12.03,0,23.57-2.07,34.3-5.86,29.23-10.33,52.4-33.5,62.73-62.73,3.79-10.73,5.86-22.27,5.86-34.3v-171.48h10.37c-5.72-10.08-9-21.8-9-34.3s3.28-24.21,9-34.3h-10.37Z"/>
        <circle class="cls-9" cx="502.15" cy="535.44" r="51.44"/>
      </g>
      <g>
        <path class="cls-9" d="m465.85,593.45v249.66h68.59v-249.66c-10.04,6.09-21.77,9.59-34.3,9.59s-24.25-3.5-34.3-9.59Z"/>
        <path class="cls-9" d="m894.55,568.74h51.44v-68.59h-387.63c5.72,10.08,9,21.8,9,34.3s-3.28,24.21-9,34.3h10.37v274.37h68.59v-9.19c10.08,5.84,21.8,9.19,34.3,9.19,37.89,0,68.59-30.72,68.59-68.59v-102.89c0-37.88-30.72-68.59-68.59-68.59-12.5,0-24.21,3.35-34.3,9.18v-43.47h188.63v36.46c-29.59,7.6-51.44,34.46-51.44,66.43v102.89c0,37.89,30.7,68.59,68.59,68.59h102.89v-68.59h-85.74c-9.48,0-17.15-7.68-17.15-17.15v-17.15h34.3c7.96,0,15.6-1.36,22.7-3.85,15.57-5.45,28.58-16.37,36.71-30.44,5.83-10.08,9.18-21.8,9.18-34.3,0-31.96-21.85-58.83-51.44-66.43v-36.46Zm-222.93,120.04v68.59c0,9.47-7.68,17.15-17.15,17.15s-17.15-7.68-17.15-17.15v-68.59c0-9.47,7.68-17.15,17.15-17.15s17.15,7.68,17.15,17.15Zm188.63,0c-9.48,0-17.15-7.68-17.15-17.15s7.67-17.15,17.15-17.15,17.15,7.68,17.15,17.15-7.68,17.15-17.15,17.15Z"/>
        <path class="cls-9" d="m431.56,500.15h-68.59v240.07c0,18.95-15.35,34.3-34.3,34.3h-34.3v-274.37h-68.59v342.96h102.89c12.03,0,23.57-2.07,34.3-5.86,29.23-10.33,52.4-33.5,62.73-62.73,3.79-10.73,5.86-22.27,5.86-34.3v-171.48h10.37c-5.72-10.08-9-21.8-9-34.3s3.28-24.21,9-34.3h-10.37Z"/>
        <circle class="cls-9" cx="500.15" cy="534.44" r="51.44"/>
      </g>
    </g>
    <g>
      <path class="cls-1" d="m465.85,593.45v249.66h68.59v-249.66c-10.04,6.09-21.77,9.59-34.3,9.59s-24.25-3.5-34.3-9.59Z"/>
      <path class="cls-1" d="m894.55,568.74h51.44v-68.59h-387.63c5.72,10.08,9,21.8,9,34.3s-3.28,24.21-9,34.3h10.37v274.37h68.59v-9.19c10.08,5.84,21.8,9.19,34.3,9.19,37.89,0,68.59-30.72,68.59-68.59v-102.89c0-37.88-30.72-68.59-68.59-68.59-12.5,0-24.21,3.35-34.3,9.18v-43.47h188.63v36.46c-29.59,7.6-51.44,34.46-51.44,66.43v102.89c0,37.89,30.7,68.59,68.59,68.59h102.89v-68.59h-85.74c-9.48,0-17.15-7.68-17.15-17.15v-17.15h34.3c7.96,0,15.6-1.36,22.7-3.85,15.57-5.45,28.58-16.37,36.71-30.44,5.83-10.08,9.18-21.8,9.18-34.3,0-31.96-21.85-58.83-51.44-66.43v-36.46Zm-222.93,120.04v68.59c0,9.47-7.68,17.15-17.15,17.15s-17.15-7.68-17.15-17.15v-68.59c0-9.47,7.68-17.15,17.15-17.15s17.15,7.68,17.15,17.15Zm188.63,0c-9.48,0-17.15-7.68-17.15-17.15s7.67-17.15,17.15-17.15,17.15,7.68,17.15,17.15-7.68,17.15-17.15,17.15Z"/>
      <path class="cls-1" d="m431.56,500.15h-68.59v240.07c0,18.95-15.35,34.3-34.3,34.3h-34.3v-274.37h-68.59v342.96h102.89c12.03,0,23.57-2.07,34.3-5.86,29.23-10.33,52.4-33.5,62.73-62.73,3.79-10.73,5.86-22.27,5.86-34.3v-171.48h10.37c-5.72-10.08-9-21.8-9-34.3s3.28-24.21,9-34.3h-10.37Z"/>
      <circle class="cls-1" cx="500.15" cy="534.44" r="51.44"/>
    </g>
  </g>
  <path class="cls-11" d="m170.73,715.28v61.34c0,26.94-29.09,44.04-52.5,30.7-.16-.09-.32-.18-.48-.28s-.32-.19-.48-.28c-23.26-13.59-23-47.34.34-60.81l53.13-30.67Z"/>
  <path class="cls-11" d="m143.76,663.15l-53.5,30.01c-23.5,13.18-52.65-3.83-52.45-30.77,0-.19,0-.37,0-.56s0-.37,0-.56c.48-26.94,30.04-43.21,53.2-29.46l52.74,31.33Z"/>
  <circle class="cls-10" cx="500.15" cy="534.44" r="34.09"/>
  <g>
    <rect class="cls-9" x="20" y="883.78" width="965.7" height="52.22"/>
    <rect class="cls-11e" x="20" y="883.78" width="965.7" height="52.22"/>
  </g>
 
</svg>