<?xml version="1.0" encoding="UTF-8"?>
<svg id="Layer_1" data-name="Layer 1" xmlns="http://www.w3.org/2000/svg" viewBox="0 0 483.68 409.76">
  <defs>
    <style>
      .cls-1 {
        fill: #fff;
      }

      .cls-2 {
        fill: none;
        stroke: rgba(0,0,0,0);
        stroke-miterlimit: 10;
        stroke-width: 40px;
      }

      .cls-3 {
        fill: #f40009;
      }
    </style>
  </defs>
  <g>
    <g>
      <path class="cls-2" d="m265.78,46.8h-69.07v68.59h.48v68.59c0,1.93-.16,3.84-.48,5.69.16.05.33.11.48.16v28.44h-34.3c-17,0-31.11-12.37-33.82-28.6-.32-1.85-.48-3.76-.48-5.69V46.8H60v137.19c0,12.03,2.07,23.57,5.86,34.3,2.11,5.99,4.77,11.73,7.92,17.15,12.17,21.04,31.58,37.37,54.82,45.59.15.05.32.11.48.16,10.59,3.69,21.96,5.69,33.82,5.69s23.23-2,33.82-5.69c.32,1.85.48,3.76.48,5.69,0,18.95-15.35,34.3-34.3,34.3H60v68.59h102.89c12.03,0,23.57-2.07,34.3-5.86,29.23-10.33,52.4-33.5,62.73-62.73,3.79-10.73,5.86-22.27,5.86-34.3V46.8Z"/>
      <path class="cls-2" d="m263.78,45.8h-69.07v68.59h.48v68.59c0,1.93-.16,3.84-.48,5.69.16.05.33.11.48.16v28.44h-34.3c-17,0-31.11-12.37-33.82-28.6-.32-1.85-.48-3.76-.48-5.69V45.8H58v137.19c0,12.03,2.07,23.57,5.86,34.3,2.11,5.99,4.77,11.73,7.92,17.15,12.17,21.04,31.58,37.37,54.82,45.59.15.05.32.11.48.16,10.59,3.69,21.96,5.69,33.82,5.69s23.23-2,33.82-5.69c.32,1.85.48,3.76.48,5.69,0,18.95-15.35,34.3-34.3,34.3H58v68.59h102.89c12.03,0,23.57-2.07,34.3-5.86,29.23-10.33,52.4-33.5,62.73-62.73,3.79-10.73,5.86-22.27,5.86-34.3V45.8Z"/>
      <path class="cls-2" d="m261.78,44.8h-69.07v68.59h.48v68.59c0,1.93-.16,3.84-.48,5.69.16.05.33.11.48.16v28.44h-34.3c-17,0-31.11-12.37-33.82-28.6-.32-1.85-.48-3.76-.48-5.69V44.8H56v137.19c0,12.03,2.07,23.57,5.86,34.3,2.11,5.99,4.77,11.73,7.92,17.15,12.17,21.04,31.58,37.37,54.82,45.59.15.05.32.11.48.16,10.59,3.69,21.96,5.69,33.82,5.69s23.23-2,33.82-5.69c.32,1.85.48,3.76.48,5.69,0,18.95-15.35,34.3-34.3,34.3H56v68.59h102.89c12.03,0,23.57-2.07,34.3-5.86,29.23-10.33,52.4-33.5,62.73-62.73,3.79-10.73,5.86-22.27,5.86-34.3V44.8Z"/>
      <path class="cls-2" d="m259.78,43.8h-69.07v68.59h.48v68.59c0,1.93-.16,3.84-.48,5.69.16.05.33.11.48.16v28.44h-34.3c-17,0-31.11-12.37-33.82-28.6-.32-1.85-.48-3.76-.48-5.69V43.8H54v137.19c0,12.03,2.07,23.57,5.86,34.3,2.11,5.99,4.77,11.73,7.92,17.15,12.17,21.04,31.58,37.37,54.82,45.59.15.05.32.11.48.16,10.59,3.69,21.96,5.69,33.82,5.69s23.23-2,33.82-5.69c.32,1.85.48,3.76.48,5.69,0,18.95-15.35,34.3-34.3,34.3H54v68.59h102.89c12.03,0,23.57-2.07,34.3-5.86,29.23-10.33,52.4-33.5,62.73-62.73,3.79-10.73,5.86-22.27,5.86-34.3V43.8Z"/>
      <path class="cls-2" d="m257.78,42.8h-69.07v68.59h.48v68.59c0,1.93-.16,3.84-.48,5.69.16.05.33.11.48.16v28.44h-34.3c-17,0-31.11-12.37-33.82-28.6-.32-1.85-.48-3.76-.48-5.69V42.8H52v137.19c0,12.03,2.07,23.57,5.86,34.3,2.11,5.99,4.77,11.73,7.92,17.15,12.17,21.04,31.58,37.37,54.82,45.59.15.05.32.11.48.16,10.59,3.69,21.96,5.69,33.82,5.69s23.23-2,33.82-5.69c.32,1.85.48,3.76.48,5.69,0,18.95-15.35,34.3-34.3,34.3H52v68.59h102.89c12.03,0,23.57-2.07,34.3-5.86,29.23-10.33,52.4-33.5,62.73-62.73,3.79-10.73,5.86-22.27,5.86-34.3V42.8Z"/>
      <path class="cls-2" d="m255.78,41.8h-69.07v68.59h.48v68.59c0,1.93-.16,3.84-.48,5.69.16.05.33.11.48.16v28.44h-34.3c-17,0-31.11-12.37-33.82-28.6-.32-1.85-.48-3.76-.48-5.69V41.8H50v137.19c0,12.03,2.07,23.57,5.86,34.3,2.11,5.99,4.77,11.73,7.92,17.15,12.17,21.04,31.58,37.37,54.82,45.59.15.05.32.11.48.16,10.59,3.69,21.96,5.69,33.82,5.69s23.23-2,33.82-5.69c.32,1.85.48,3.76.48,5.69,0,18.95-15.35,34.3-34.3,34.3H50v68.59h102.89c12.03,0,23.57-2.07,34.3-5.86,29.23-10.33,52.4-33.5,62.73-62.73,3.79-10.73,5.86-22.27,5.86-34.3V41.8Z"/>
      <path class="cls-2" d="m253.78,40.8h-69.07v68.59h.48v68.59c0,1.93-.16,3.84-.48,5.69.16.05.33.11.48.16v28.44h-34.3c-17,0-31.11-12.37-33.82-28.6-.32-1.85-.48-3.76-.48-5.69V40.8H48v137.19c0,12.03,2.07,23.57,5.86,34.3,2.11,5.99,4.77,11.73,7.92,17.15,12.17,21.04,31.58,37.37,54.82,45.59.15.05.32.11.48.16,10.59,3.69,21.96,5.69,33.82,5.69s23.23-2,33.82-5.69c.32,1.85.48,3.76.48,5.69,0,18.95-15.35,34.3-34.3,34.3H48v68.59h102.89c12.03,0,23.57-2.07,34.3-5.86,29.23-10.33,52.4-33.5,62.73-62.73,3.79-10.73,5.86-22.27,5.86-34.3V40.8Z"/>
      <path class="cls-2" d="m251.78,39.8h-69.07v68.59h.48v68.59c0,1.93-.16,3.84-.48,5.69.16.05.33.11.48.16v28.44h-34.3c-17,0-31.11-12.37-33.82-28.6-.32-1.85-.48-3.76-.48-5.69V39.8H46v137.19c0,12.03,2.07,23.57,5.86,34.3,2.11,5.99,4.77,11.73,7.92,17.15,12.17,21.04,31.58,37.37,54.82,45.59.15.05.32.11.48.16,10.59,3.69,21.96,5.69,33.82,5.69s23.23-2,33.82-5.69c.32,1.85.48,3.76.48,5.69,0,18.95-15.35,34.3-34.3,34.3H46v68.59h102.89c12.03,0,23.57-2.07,34.3-5.86,29.23-10.33,52.4-33.5,62.73-62.73,3.79-10.73,5.86-22.27,5.86-34.3V39.8Z"/>
      <path class="cls-2" d="m249.78,38.8h-69.07v68.59h.48v68.59c0,1.93-.16,3.84-.48,5.69.16.05.33.11.48.16v28.44h-34.3c-17,0-31.11-12.37-33.82-28.6-.32-1.85-.48-3.76-.48-5.69V38.8H44v137.19c0,12.03,2.07,23.57,5.86,34.3,2.11,5.99,4.77,11.73,7.92,17.15,12.17,21.04,31.58,37.37,54.82,45.59.15.05.32.11.48.16,10.59,3.69,21.96,5.69,33.82,5.69s23.23-2,33.82-5.69c.32,1.85.48,3.76.48,5.69,0,18.95-15.35,34.3-34.3,34.3H44v68.59h102.89c12.03,0,23.57-2.07,34.3-5.86,29.23-10.33,52.4-33.5,62.73-62.73,3.79-10.73,5.86-22.27,5.86-34.3V38.8Z"/>
      <path class="cls-2" d="m247.78,37.8h-69.07v68.59h.48v68.59c0,1.93-.16,3.84-.48,5.69.16.05.33.11.48.16v28.44h-34.3c-17,0-31.11-12.37-33.82-28.6-.32-1.85-.48-3.76-.48-5.69V37.8H42v137.19c0,12.03,2.07,23.57,5.86,34.3,2.11,5.99,4.77,11.73,7.92,17.15,12.17,21.04,31.58,37.37,54.82,45.59.15.05.32.11.48.16,10.59,3.69,21.96,5.69,33.82,5.69s23.23-2,33.82-5.69c.32,1.85.48,3.76.48,5.69,0,18.95-15.35,34.3-34.3,34.3H42v68.59h102.89c12.03,0,23.57-2.07,34.3-5.86,29.23-10.33,52.4-33.5,62.73-62.73,3.79-10.73,5.86-22.27,5.86-34.3V37.8Z"/>
      <path class="cls-2" d="m245.78,36.8h-69.07v68.59h.48v68.59c0,1.93-.16,3.84-.48,5.69.16.05.33.11.48.16v28.44h-34.3c-17,0-31.11-12.37-33.82-28.6-.32-1.85-.48-3.76-.48-5.69V36.8H40v137.19c0,12.03,2.07,23.57,5.86,34.3,2.11,5.99,4.77,11.73,7.92,17.15,12.17,21.04,31.58,37.37,54.82,45.59.15.05.32.11.48.16,10.59,3.69,21.96,5.69,33.82,5.69s23.23-2,33.82-5.69c.32,1.85.48,3.76.48,5.69,0,18.95-15.35,34.3-34.3,34.3H40v68.59h102.89c12.03,0,23.57-2.07,34.3-5.86,29.23-10.33,52.4-33.5,62.73-62.73,3.79-10.73,5.86-22.27,5.86-34.3V36.8Z"/>
      <path class="cls-2" d="m243.78,35.8h-69.07v68.59h.48v68.59c0,1.93-.16,3.84-.48,5.69.16.05.33.11.48.16v28.44h-34.3c-17,0-31.11-12.37-33.82-28.6-.32-1.85-.48-3.76-.48-5.69V35.8H38v137.19c0,12.03,2.07,23.57,5.86,34.3,2.11,5.99,4.77,11.73,7.92,17.15,12.17,21.04,31.58,37.37,54.82,45.59.15.05.32.11.48.16,10.59,3.69,21.96,5.69,33.82,5.69s23.23-2,33.82-5.69c.32,1.85.48,3.76.48,5.69,0,18.95-15.35,34.3-34.3,34.3H38v68.59h102.89c12.03,0,23.57-2.07,34.3-5.86,29.23-10.33,52.4-33.5,62.73-62.73,3.79-10.73,5.86-22.27,5.86-34.3V35.8Z"/>
      <path class="cls-2" d="m241.78,34.8h-69.07v68.59h.48v68.59c0,1.93-.16,3.84-.48,5.69.16.05.33.11.48.16v28.44h-34.3c-17,0-31.11-12.37-33.82-28.6-.32-1.85-.48-3.76-.48-5.69V34.8H36v137.19c0,12.03,2.07,23.57,5.86,34.3,2.11,5.99,4.77,11.73,7.92,17.15,12.17,21.04,31.58,37.37,54.82,45.59.15.05.32.11.48.16,10.59,3.69,21.96,5.69,33.82,5.69s23.23-2,33.82-5.69c.32,1.85.48,3.76.48,5.69,0,18.95-15.35,34.3-34.3,34.3H36v68.59h102.89c12.03,0,23.57-2.07,34.3-5.86,29.23-10.33,52.4-33.5,62.73-62.73,3.79-10.73,5.86-22.27,5.86-34.3V34.8Z"/>
      <path class="cls-2" d="m239.78,33.8h-69.07v68.59h.48v68.59c0,1.93-.16,3.84-.48,5.69.16.05.33.11.48.16v28.44h-34.3c-17,0-31.11-12.37-33.82-28.6-.32-1.85-.48-3.76-.48-5.69V33.8H34v137.19c0,12.03,2.07,23.57,5.86,34.3,2.11,5.99,4.77,11.73,7.92,17.15,12.17,21.04,31.58,37.37,54.82,45.59.15.05.32.11.48.16,10.59,3.69,21.96,5.69,33.82,5.69s23.23-2,33.82-5.69c.32,1.85.48,3.76.48,5.69,0,18.95-15.35,34.3-34.3,34.3H34v68.59h102.89c12.03,0,23.57-2.07,34.3-5.86,29.23-10.33,52.4-33.5,62.73-62.73,3.79-10.73,5.86-22.27,5.86-34.3V33.8Z"/>
      <path class="cls-2" d="m237.78,32.8h-69.07v68.59h.48v68.59c0,1.93-.16,3.84-.48,5.69.16.05.33.11.48.16v28.44h-34.3c-17,0-31.11-12.37-33.82-28.6-.32-1.85-.48-3.76-.48-5.69V32.8H32v137.19c0,12.03,2.07,23.57,5.86,34.3,2.11,5.99,4.77,11.73,7.92,17.15,12.17,21.04,31.58,37.37,54.82,45.59.15.05.32.11.48.16,10.59,3.69,21.96,5.69,33.82,5.69s23.23-2,33.82-5.69c.32,1.85.48,3.76.48,5.69,0,18.95-15.35,34.3-34.3,34.3H32v68.59h102.89c12.03,0,23.57-2.07,34.3-5.86,29.23-10.33,52.4-33.5,62.73-62.73,3.79-10.73,5.86-22.27,5.86-34.3V32.8Z"/>
      <path class="cls-2" d="m235.78,31.8h-69.07v68.59h.48v68.59c0,1.93-.16,3.84-.48,5.69.16.05.33.11.48.16v28.44h-34.3c-17,0-31.11-12.37-33.82-28.6-.32-1.85-.48-3.76-.48-5.69V31.8H30v137.19c0,12.03,2.07,23.57,5.86,34.3,2.11,5.99,4.77,11.73,7.92,17.15,12.17,21.04,31.58,37.37,54.82,45.59.15.05.32.11.48.16,10.59,3.69,21.96,5.69,33.82,5.69s23.23-2,33.82-5.69c.32,1.85.48,3.76.48,5.69,0,18.95-15.35,34.3-34.3,34.3H30v68.59h102.89c12.03,0,23.57-2.07,34.3-5.86,29.23-10.33,52.4-33.5,62.73-62.73,3.79-10.73,5.86-22.27,5.86-34.3V31.8Z"/>
      <path class="cls-2" d="m233.78,30.8h-69.07v68.59h.48v68.59c0,1.93-.16,3.84-.48,5.69.16.05.33.11.48.16v28.44h-34.3c-17,0-31.11-12.37-33.82-28.6-.32-1.85-.48-3.76-.48-5.69V30.8H28v137.19c0,12.03,2.07,23.57,5.86,34.3,2.11,5.99,4.77,11.73,7.92,17.15,12.17,21.04,31.58,37.37,54.82,45.59.15.05.32.11.48.16,10.59,3.69,21.96,5.69,33.82,5.69s23.23-2,33.82-5.69c.32,1.85.48,3.76.48,5.69,0,18.95-15.35,34.3-34.3,34.3H28v68.59h102.89c12.03,0,23.57-2.07,34.3-5.86,29.23-10.33,52.4-33.5,62.73-62.73,3.79-10.73,5.86-22.27,5.86-34.3V30.8Z"/>
      <path class="cls-2" d="m231.78,29.8h-69.07v68.59h.48v68.59c0,1.93-.16,3.84-.48,5.69.16.05.33.11.48.16v28.44h-34.3c-17,0-31.11-12.37-33.82-28.6-.32-1.85-.48-3.76-.48-5.69V29.8H26v137.19c0,12.03,2.07,23.57,5.86,34.3,2.11,5.99,4.77,11.73,7.92,17.15,12.17,21.04,31.58,37.37,54.82,45.59.15.05.32.11.48.16,10.59,3.69,21.96,5.69,33.82,5.69s23.23-2,33.82-5.69c.32,1.85.48,3.76.48,5.69,0,18.95-15.35,34.3-34.3,34.3H26v68.59h102.89c12.03,0,23.57-2.07,34.3-5.86,29.23-10.33,52.4-33.5,62.73-62.73,3.79-10.73,5.86-22.27,5.86-34.3V29.8Z"/>
      <path class="cls-2" d="m229.78,28.8h-69.07v68.59h.48v68.59c0,1.93-.16,3.84-.48,5.69.16.05.33.11.48.16v28.44h-34.3c-17,0-31.11-12.37-33.82-28.6-.32-1.85-.48-3.76-.48-5.69V28.8H24v137.19c0,12.03,2.07,23.57,5.86,34.3,2.11,5.99,4.77,11.73,7.92,17.15,12.17,21.04,31.58,37.37,54.82,45.59.15.05.32.11.48.16,10.59,3.69,21.96,5.69,33.82,5.69s23.23-2,33.82-5.69c.32,1.85.48,3.76.48,5.69,0,18.95-15.35,34.3-34.3,34.3H24v68.59h102.89c12.03,0,23.57-2.07,34.3-5.86,29.23-10.33,52.4-33.5,62.73-62.73,3.79-10.73,5.86-22.27,5.86-34.3V28.8Z"/>
      <path class="cls-2" d="m227.78,27.8h-69.07v68.59h.48v68.59c0,1.93-.16,3.84-.48,5.69.16.05.33.11.48.16v28.44h-34.3c-17,0-31.11-12.37-33.82-28.6-.32-1.85-.48-3.76-.48-5.69V27.8H22v137.19c0,12.03,2.07,23.57,5.86,34.3,2.11,5.99,4.77,11.73,7.92,17.15,12.17,21.04,31.58,37.37,54.82,45.59.15.05.32.11.48.16,10.59,3.69,21.96,5.69,33.82,5.69s23.23-2,33.82-5.69c.32,1.85.48,3.76.48,5.69,0,18.95-15.35,34.3-34.3,34.3H22v68.59h102.89c12.03,0,23.57-2.07,34.3-5.86,29.23-10.33,52.4-33.5,62.73-62.73,3.79-10.73,5.86-22.27,5.86-34.3V27.8Z"/>
      <path class="cls-2" d="m225.78,26.8h-69.07v68.59h.48v68.59c0,1.93-.16,3.84-.48,5.69.16.05.33.11.48.16v28.44h-34.3c-17,0-31.11-12.37-33.82-28.6-.32-1.85-.48-3.76-.48-5.69V26.8H20v137.19c0,12.03,2.07,23.57,5.86,34.3,2.11,5.99,4.77,11.73,7.92,17.15,12.17,21.04,31.58,37.37,54.82,45.59.15.05.32.11.48.16,10.59,3.69,21.96,5.69,33.82,5.69s23.23-2,33.82-5.69c.32,1.85.48,3.76.48,5.69,0,18.95-15.35,34.3-34.3,34.3H20v68.59h102.89c12.03,0,23.57-2.07,34.3-5.86,29.23-10.33,52.4-33.5,62.73-62.73,3.79-10.73,5.86-22.27,5.86-34.3V26.8Z"/>
    </g>
    <path class="cls-3" d="m225.78,26.8h-69.07v68.59h.48v68.59c0,1.93-.16,3.84-.48,5.69.16.05.33.11.48.16v28.44h-34.3c-17,0-31.11-12.37-33.82-28.6-.32-1.85-.48-3.76-.48-5.69V26.8H20v137.19c0,12.03,2.07,23.57,5.86,34.3,2.11,5.99,4.77,11.73,7.92,17.15,12.17,21.04,31.58,37.37,54.82,45.59.15.05.32.11.48.16,10.59,3.69,21.96,5.69,33.82,5.69s23.23-2,33.82-5.69c.32,1.85.48,3.76.48,5.69,0,18.95-15.35,34.3-34.3,34.3H20v68.59h102.89c12.03,0,23.57-2.07,34.3-5.86,29.23-10.33,52.4-33.5,62.73-62.73,3.79-10.73,5.86-22.27,5.86-34.3V26.8Z"/>
  </g>
  <g>
    <g>
      <circle cx="292.32" cy="51.44" r="51.44"/>
      <circle cx="432.24" cy="51.44" r="51.44"/>
      <path d="m466.06,125.28v137.19c0,12.03-2.07,23.57-5.86,34.3-10.33,29.23-33.5,52.4-62.73,62.73-10.73,3.79-22.27,5.86-34.3,5.86h-102.89V125.28h68.59v171.48h34.3c18.95,0,34.3-15.35,34.3-34.3V125.28h68.59Z"/>
    </g>
    <g>
      <g>
        <circle class="cls-2" cx="332.32" cy="71.44" r="51.44"/>
        <circle class="cls-2" cx="472.24" cy="71.44" r="51.44"/>
        <path class="cls-2" d="m506.06,145.28v137.19c0,12.03-2.07,23.57-5.86,34.3-10.33,29.23-33.5,52.4-62.73,62.73-10.73,3.79-22.27,5.86-34.3,5.86h-102.89v-240.07h68.59v171.48h34.3c18.95,0,34.3-15.35,34.3-34.3v-137.19h68.59Z"/>
      </g>
      <g>
        <circle class="cls-2" cx="330.32" cy="70.44" r="51.44"/>
        <circle class="cls-2" cx="470.24" cy="70.44" r="51.44"/>
        <path class="cls-2" d="m504.06,144.28v137.19c0,12.03-2.07,23.57-5.86,34.3-10.33,29.23-33.5,52.4-62.73,62.73-10.73,3.79-22.27,5.86-34.3,5.86h-102.89v-240.07h68.59v171.48h34.3c18.95,0,34.3-15.35,34.3-34.3v-137.19h68.59Z"/>
      </g>
      <g>
        <circle class="cls-2" cx="328.32" cy="69.44" r="51.44"/>
        <circle class="cls-2" cx="468.24" cy="69.44" r="51.44"/>
        <path class="cls-2" d="m502.06,143.28v137.19c0,12.03-2.07,23.57-5.86,34.3-10.33,29.23-33.5,52.4-62.73,62.73-10.73,3.79-22.27,5.86-34.3,5.86h-102.89v-240.07h68.59v171.48h34.3c18.95,0,34.3-15.35,34.3-34.3v-137.19h68.59Z"/>
      </g>
      <g>
        <circle class="cls-2" cx="326.32" cy="68.44" r="51.44"/>
        <circle class="cls-2" cx="466.24" cy="68.44" r="51.44"/>
        <path class="cls-2" d="m500.06,142.28v137.19c0,12.03-2.07,23.57-5.86,34.3-10.33,29.23-33.5,52.4-62.73,62.73-10.73,3.79-22.27,5.86-34.3,5.86h-102.89v-240.07h68.59v171.48h34.3c18.95,0,34.3-15.35,34.3-34.3v-137.19h68.59Z"/>
      </g>
      <g>
        <circle class="cls-2" cx="324.32" cy="67.44" r="51.44"/>
        <circle class="cls-2" cx="464.24" cy="67.44" r="51.44"/>
        <path class="cls-2" d="m498.06,141.28v137.19c0,12.03-2.07,23.57-5.86,34.3-10.33,29.23-33.5,52.4-62.73,62.73-10.73,3.79-22.27,5.86-34.3,5.86h-102.89v-240.07h68.59v171.48h34.3c18.95,0,34.3-15.35,34.3-34.3v-137.19h68.59Z"/>
      </g>
      <g>
        <circle class="cls-2" cx="322.32" cy="66.44" r="51.44"/>
        <circle class="cls-2" cx="462.24" cy="66.44" r="51.44"/>
        <path class="cls-2" d="m496.06,140.28v137.19c0,12.03-2.07,23.57-5.86,34.3-10.33,29.23-33.5,52.4-62.73,62.73-10.73,3.79-22.27,5.86-34.3,5.86h-102.89v-240.07h68.59v171.48h34.3c18.95,0,34.3-15.35,34.3-34.3v-137.19h68.59Z"/>
      </g>
      <g>
        <circle class="cls-2" cx="320.32" cy="65.44" r="51.44"/>
        <circle class="cls-2" cx="460.24" cy="65.44" r="51.44"/>
        <path class="cls-2" d="m494.06,139.28v137.19c0,12.03-2.07,23.57-5.86,34.3-10.33,29.23-33.5,52.4-62.73,62.73-10.73,3.79-22.27,5.86-34.3,5.86h-102.89v-240.07h68.59v171.48h34.3c18.95,0,34.3-15.35,34.3-34.3v-137.19h68.59Z"/>
      </g>
      <g>
        <circle class="cls-2" cx="318.32" cy="64.44" r="51.44"/>
        <circle class="cls-2" cx="458.24" cy="64.44" r="51.44"/>
        <path class="cls-2" d="m492.06,138.28v137.19c0,12.03-2.07,23.57-5.86,34.3-10.33,29.23-33.5,52.4-62.73,62.73-10.73,3.79-22.27,5.86-34.3,5.86h-102.89v-240.07h68.59v171.48h34.3c18.95,0,34.3-15.35,34.3-34.3v-137.19h68.59Z"/>
      </g>
      <g>
        <circle class="cls-2" cx="316.32" cy="63.44" r="51.44"/>
        <circle class="cls-2" cx="456.24" cy="63.44" r="51.44"/>
        <path class="cls-2" d="m490.06,137.28v137.19c0,12.03-2.07,23.57-5.86,34.3-10.33,29.23-33.5,52.4-62.73,62.73-10.73,3.79-22.27,5.86-34.3,5.86h-102.89v-240.07h68.59v171.48h34.3c18.95,0,34.3-15.35,34.3-34.3v-137.19h68.59Z"/>
      </g>
      <g>
        <circle class="cls-2" cx="314.32" cy="62.44" r="51.44"/>
        <circle class="cls-2" cx="454.24" cy="62.44" r="51.44"/>
        <path class="cls-2" d="m488.06,136.28v137.19c0,12.03-2.07,23.57-5.86,34.3-10.33,29.23-33.5,52.4-62.73,62.73-10.73,3.79-22.27,5.86-34.3,5.86h-102.89v-240.07h68.59v171.48h34.3c18.95,0,34.3-15.35,34.3-34.3v-137.19h68.59Z"/>
      </g>
      <g>
        <circle class="cls-2" cx="312.32" cy="61.44" r="51.44"/>
        <circle class="cls-2" cx="452.24" cy="61.44" r="51.44"/>
        <path class="cls-2" d="m486.06,135.28v137.19c0,12.03-2.07,23.57-5.86,34.3-10.33,29.23-33.5,52.4-62.73,62.73-10.73,3.79-22.27,5.86-34.3,5.86h-102.89v-240.07h68.59v171.48h34.3c18.95,0,34.3-15.35,34.3-34.3v-137.19h68.59Z"/>
      </g>
      <g>
        <circle class="cls-2" cx="310.32" cy="60.44" r="51.44"/>
        <circle class="cls-2" cx="450.24" cy="60.44" r="51.44"/>
        <path class="cls-2" d="m484.06,134.28v137.19c0,12.03-2.07,23.57-5.86,34.3-10.33,29.23-33.5,52.4-62.73,62.73-10.73,3.79-22.27,5.86-34.3,5.86h-102.89v-240.07h68.59v171.48h34.3c18.95,0,34.3-15.35,34.3-34.3v-137.19h68.59Z"/>
      </g>
      <g>
        <circle class="cls-2" cx="308.32" cy="59.44" r="51.44"/>
        <circle class="cls-2" cx="448.24" cy="59.44" r="51.44"/>
        <path class="cls-2" d="m482.06,133.28v137.19c0,12.03-2.07,23.57-5.86,34.3-10.33,29.23-33.5,52.4-62.73,62.73-10.73,3.79-22.27,5.86-34.3,5.86h-102.89v-240.07h68.59v171.48h34.3c18.95,0,34.3-15.35,34.3-34.3v-137.19h68.59Z"/>
      </g>
      <g>
        <circle class="cls-2" cx="306.32" cy="58.44" r="51.44"/>
        <circle class="cls-2" cx="446.24" cy="58.44" r="51.44"/>
        <path class="cls-2" d="m480.06,132.28v137.19c0,12.03-2.07,23.57-5.86,34.3-10.33,29.23-33.5,52.4-62.73,62.73-10.73,3.79-22.27,5.86-34.3,5.86h-102.89v-240.07h68.59v171.48h34.3c18.95,0,34.3-15.35,34.3-34.3v-137.19h68.59Z"/>
      </g>
      <g>
        <circle class="cls-2" cx="304.32" cy="57.44" r="51.44"/>
        <circle class="cls-2" cx="444.24" cy="57.44" r="51.44"/>
        <path class="cls-2" d="m478.06,131.28v137.19c0,12.03-2.07,23.57-5.86,34.3-10.33,29.23-33.5,52.4-62.73,62.73-10.73,3.79-22.27,5.86-34.3,5.86h-102.89v-240.07h68.59v171.48h34.3c18.95,0,34.3-15.35,34.3-34.3v-137.19h68.59Z"/>
      </g>
      <g>
        <circle class="cls-2" cx="302.32" cy="56.44" r="51.44"/>
        <circle class="cls-2" cx="442.24" cy="56.44" r="51.44"/>
        <path class="cls-2" d="m476.06,130.28v137.19c0,12.03-2.07,23.57-5.86,34.3-10.33,29.23-33.5,52.4-62.73,62.73-10.73,3.79-22.27,5.86-34.3,5.86h-102.89v-240.07h68.59v171.48h34.3c18.95,0,34.3-15.35,34.3-34.3v-137.19h68.59Z"/>
      </g>
      <g>
        <circle class="cls-2" cx="300.32" cy="55.44" r="51.44"/>
        <circle class="cls-2" cx="440.24" cy="55.44" r="51.44"/>
        <path class="cls-2" d="m474.06,129.28v137.19c0,12.03-2.07,23.57-5.86,34.3-10.33,29.23-33.5,52.4-62.73,62.73-10.73,3.79-22.27,5.86-34.3,5.86h-102.89v-240.07h68.59v171.48h34.3c18.95,0,34.3-15.35,34.3-34.3v-137.19h68.59Z"/>
      </g>
      <g>
        <circle class="cls-2" cx="298.32" cy="54.44" r="51.44"/>
        <circle class="cls-2" cx="438.24" cy="54.44" r="51.44"/>
        <path class="cls-2" d="m472.06,128.28v137.19c0,12.03-2.07,23.57-5.86,34.3-10.33,29.23-33.5,52.4-62.73,62.73-10.73,3.79-22.27,5.86-34.3,5.86h-102.89v-240.07h68.59v171.48h34.3c18.95,0,34.3-15.35,34.3-34.3v-137.19h68.59Z"/>
      </g>
      <g>
        <circle class="cls-2" cx="296.32" cy="53.44" r="51.44"/>
        <circle class="cls-2" cx="436.24" cy="53.44" r="51.44"/>
        <path class="cls-2" d="m470.06,127.28v137.19c0,12.03-2.07,23.57-5.86,34.3-10.33,29.23-33.5,52.4-62.73,62.73-10.73,3.79-22.27,5.86-34.3,5.86h-102.89V127.28h68.59v171.48h34.3c18.95,0,34.3-15.35,34.3-34.3V127.28h68.59Z"/>
      </g>
      <g>
        <circle class="cls-2" cx="294.32" cy="52.44" r="51.44"/>
        <circle class="cls-2" cx="434.24" cy="52.44" r="51.44"/>
        <path class="cls-2" d="m468.06,126.28v137.19c0,12.03-2.07,23.57-5.86,34.3-10.33,29.23-33.5,52.4-62.73,62.73-10.73,3.79-22.27,5.86-34.3,5.86h-102.89V126.28h68.59v171.48h34.3c18.95,0,34.3-15.35,34.3-34.3V126.28h68.59Z"/>
      </g>
      <g>
        <circle class="cls-2" cx="292.32" cy="51.44" r="51.44"/>
        <circle class="cls-2" cx="432.24" cy="51.44" r="51.44"/>
        <path class="cls-2" d="m466.06,125.28v137.19c0,12.03-2.07,23.57-5.86,34.3-10.33,29.23-33.5,52.4-62.73,62.73-10.73,3.79-22.27,5.86-34.3,5.86h-102.89V125.28h68.59v171.48h34.3c18.95,0,34.3-15.35,34.3-34.3V125.28h68.59Z"/>
      </g>
    </g>
    <g>
      <circle class="cls-1" cx="292.32" cy="51.44" r="51.44"/>
      <circle class="cls-1" cx="432.24" cy="51.44" r="51.44"/>
      <path class="cls-1" d="m466.06,125.28v137.19c0,12.03-2.07,23.57-5.86,34.3-10.33,29.23-33.5,52.4-62.73,62.73-10.73,3.79-22.27,5.86-34.3,5.86h-102.89V125.28h68.59v171.48h34.3c18.95,0,34.3-15.35,34.3-34.3V125.28h68.59Z"/>
    </g>
  </g>
</svg>